<svg width="25" height="22" viewBox="0 0 25 22" fill="none" xmlns="http://www.w3.org/2000/svg">
<path fill-rule="evenodd" clip-rule="evenodd" d="M0.00660432 6.1525V19.1456C0.00660432 19.2315 0.00499939 19.3197 0.00337187 19.4091C-0.000263102 19.6087 -0.00401076 19.8145 0.00975783 20.0159C0.0290153 20.3893 0.138626 20.7712 0.352678 21.0783C0.622222 21.467 0.970594 21.7346 1.40797 21.8993C1.63682 21.9868 1.88603 22.01 2.13014 22.01H22.184C22.1904 22.0101 22.1968 22.0101 22.2033 22.01C22.2037 22.01 22.2042 22.01 22.2047 22.01H22.2086C22.2193 22.01 22.2299 22.0097 22.2406 22.0092C22.8671 21.9908 23.4467 21.6989 23.8307 21.1942C23.9297 21.0651 24.0121 20.9269 24.0776 20.7816C24.1108 20.7104 24.1405 20.6368 24.1666 20.561C24.2165 20.4145 24.243 20.2596 24.2557 20.1037C24.2615 20.0414 24.2648 19.9785 24.2655 19.9151C24.2672 19.8191 24.2667 19.7243 24.2661 19.629C24.266 19.6099 24.2659 19.5907 24.2658 19.5715V6.57231C24.2662 6.50112 24.2673 6.42934 24.2684 6.35723C24.2713 6.16504 24.2742 5.97039 24.2658 5.7776V5.72428C24.2618 5.42981 24.2017 5.12766 24.0806 4.85705C24.0419 4.76877 23.9955 4.68278 23.94 4.59963C23.9391 4.59823 23.9382 4.59682 23.9372 4.59542C23.6845 4.20892 23.336 3.94112 22.913 3.76835C22.7413 3.69751 22.5648 3.66484 22.386 3.64981C22.3608 3.6469 22.3355 3.64438 22.3101 3.64225C22.2414 3.6371 22.1728 3.6371 22.1041 3.6371H22.0027C21.9759 3.63705 21.9491 3.63707 21.9223 3.63708C21.9101 3.63709 21.8979 3.63709 21.8857 3.63709H12.2469C12.0181 3.37015 11.7892 3.1029 11.5603 2.83565C11.2665 2.49264 10.9728 2.14964 10.679 1.80728C10.4373 1.52639 10.1975 1.2455 9.95627 0.962851C9.92343 0.924377 9.89056 0.885871 9.85766 0.847328C9.47114 0.396948 8.92951 0.191061 8.34974 0.191061H2.46047C2.43214 0.191061 2.40381 0.190987 2.3755 0.190913C2.03013 0.190012 1.68608 0.189115 1.35941 0.322314C0.756749 0.564232 0.319377 1.01976 0.105776 1.63999C0.0345759 1.85103 0.00660432 2.08265 0.00660432 2.30398C0.00490849 2.58031 0.00547455 2.85778 0.00603982 3.13487C0.00632217 3.27327 0.00660432 3.41158 0.00660432 3.5496V5.76718C0.00431924 5.8685 0.00515801 5.97002 0.00599177 6.07093C0.00621683 6.09817 0.00644153 6.12537 0.00660432 6.1525ZM1.52978 7.20044V5.76769C1.52986 5.75837 1.52994 5.74904 1.53002 5.73972C1.53002 5.71103 1.53104 5.68234 1.53283 5.65365C1.54286 5.60668 1.5549 5.56061 1.56933 5.51543C1.5896 5.4753 1.61191 5.43602 1.63673 5.39758C1.63974 5.3941 1.64273 5.39062 1.64573 5.38714C1.65844 5.37234 1.67115 5.35754 1.68514 5.34339C1.69956 5.32879 1.71499 5.31419 1.7308 5.29959C1.73325 5.29798 1.73583 5.29628 1.73854 5.29449C1.77647 5.26939 1.81524 5.24683 1.85484 5.22632C1.89893 5.21163 1.94343 5.1992 1.98836 5.18919C2.1212 5.17954 2.25589 5.18194 2.38931 5.18431C2.4482 5.18535 2.50684 5.1864 2.56497 5.1864H11.8234C11.847 5.18893 11.8715 5.19066 11.897 5.19156C12.0209 5.19499 12.1459 5.19384 12.2705 5.1927C12.3326 5.19213 12.3947 5.19156 12.4565 5.19156H19.9274C20.1775 5.19156 20.4277 5.19127 20.6777 5.19098C21.1775 5.19041 21.677 5.18984 22.1753 5.19156C22.2068 5.19156 22.2382 5.19272 22.2697 5.19478C22.3155 5.20485 22.3604 5.21692 22.4045 5.23133C22.4442 5.25185 22.483 5.27443 22.521 5.29955C22.5244 5.3026 22.5279 5.30563 22.5313 5.30866C22.5459 5.32153 22.5605 5.33439 22.5745 5.34855C22.589 5.36315 22.6034 5.37877 22.6178 5.39477C22.6194 5.39725 22.6211 5.39985 22.6228 5.40259C22.6476 5.44098 22.6699 5.48022 22.6902 5.5203C22.7041 5.56316 22.716 5.60641 22.7257 5.65006C22.7323 5.75401 22.7313 5.85928 22.7303 5.96421C22.73 6.00184 22.7296 6.03941 22.7296 6.07687V18.2268C22.7296 18.4147 22.7302 18.6026 22.7308 18.7904C22.7319 19.1662 22.733 19.5419 22.7296 19.9177C22.7296 19.9464 22.7286 19.975 22.7268 20.0037C22.7171 20.0493 22.7055 20.094 22.6916 20.1379C22.687 20.1469 22.6823 20.1559 22.6775 20.1648C22.661 20.1953 22.6436 20.2252 22.6257 20.2547C22.6227 20.2581 22.6197 20.2616 22.6167 20.2651C22.604 20.2799 22.5913 20.2947 22.5773 20.3088C22.5629 20.3234 22.5475 20.338 22.5316 20.3526C22.5292 20.3542 22.5266 20.3559 22.5239 20.3577C22.486 20.3828 22.4472 20.4054 22.4076 20.4259C22.3611 20.4414 22.3141 20.4544 22.2667 20.4647C22.246 20.4655 22.2249 20.4658 22.2035 20.4658H2.08437C2.05475 20.4658 2.02513 20.4653 1.99551 20.4638C1.94779 20.4535 1.901 20.4411 1.85514 20.4261C1.81547 20.4055 1.77665 20.3829 1.73867 20.3578C1.73524 20.3548 1.7318 20.3518 1.72836 20.3487C1.71374 20.3359 1.69912 20.323 1.68514 20.3088C1.67071 20.2942 1.65629 20.2786 1.64187 20.2626C1.64028 20.2601 1.6386 20.2575 1.63682 20.2548C1.61202 20.2164 1.58973 20.1772 1.56947 20.1371C1.55553 20.0942 1.54364 20.051 1.53397 20.0073C1.52737 19.9034 1.52835 19.7981 1.52932 19.6932C1.52967 19.6555 1.53002 19.618 1.53002 19.5805V7.43057C1.53002 7.35386 1.52993 7.27715 1.52978 7.20044ZM22.1856 22.01C22.1915 22.0101 22.1975 22.0101 22.2035 22.01H22.1856ZM10.22 3.63709H2.17083C2.11234 3.63709 2.05131 3.63709 1.99283 3.63967C1.83421 3.64892 1.67905 3.67572 1.52978 3.71852V2.30398C1.52978 2.27281 1.53088 2.24219 1.53283 2.21161C1.54281 2.16505 1.55478 2.11936 1.56908 2.07455C1.58936 2.03441 1.61166 1.99513 1.63649 1.95669C1.63949 1.95322 1.64249 1.94974 1.64548 1.94625C1.65819 1.93145 1.67091 1.91666 1.68489 1.9025C1.69932 1.88791 1.71475 1.87331 1.73055 1.85871C1.73301 1.8571 1.73559 1.8554 1.73829 1.8536C1.77623 1.8285 1.81499 1.80594 1.8546 1.78544C1.89865 1.77076 1.94312 1.75833 1.98801 1.74833C2.13835 1.73711 2.2921 1.74003 2.44442 1.74292C2.51293 1.74422 2.58115 1.74551 2.64864 1.74551H7.6886C7.77638 1.74551 7.86546 1.74331 7.95502 1.7411C8.13131 1.73674 8.30944 1.73233 8.48312 1.74459C8.51162 1.75128 8.53966 1.75887 8.56758 1.76745C8.58034 1.77453 8.59297 1.78173 8.60561 1.78894C8.61657 1.79518 8.62752 1.80143 8.63855 1.80759C8.64313 1.8118 8.64773 1.81597 8.65234 1.82015C8.66442 1.83108 8.6765 1.84202 8.68794 1.8536C8.70574 1.87162 8.72354 1.89221 8.74134 1.9128C8.77694 1.95397 8.81254 1.99515 8.84814 2.0389C8.9881 2.2034 9.13006 2.36789 9.27047 2.53059C9.28823 2.55116 9.30596 2.57171 9.32366 2.59223C9.54616 2.85216 9.76929 3.11209 9.99243 3.37202C10.0683 3.46038 10.1441 3.54874 10.22 3.63709ZM2.08921 1.73007C2.08216 1.73113 2.07513 1.73216 2.06813 1.73317C2.07515 1.73207 2.08217 1.73104 2.08921 1.73007ZM2.08945 5.17095C2.0824 5.17201 2.07538 5.17304 2.06837 5.17405C2.07539 5.17296 2.08242 5.17193 2.08945 5.17095Z" fill="#42A5F5"/>
</svg>
