<svg width="24" height="25" viewBox="0 0 24 25" fill="none" xmlns="http://www.w3.org/2000/svg">
<path d="M12.0081 0.667175C13.9494 0.667175 15.8833 1.14212 17.6016 2.04064C23.4519 5.1021 25.7017 12.3133 22.617 18.1175C20.513 22.0754 16.3705 24.47 11.9944 24.47C11.1394 24.47 10.2761 24.3788 9.4169 24.1901C8.9329 24.0832 8.62749 23.6072 8.73422 23.127C8.84096 22.6468 9.31968 22.3459 9.80685 22.4497C14.2759 23.4352 18.8898 21.3079 21.0276 17.2861C23.6505 12.3521 21.7378 6.21974 16.7636 3.6175C15.3031 2.85318 13.6588 2.44953 12.007 2.44953C6.37234 2.44953 1.79652 6.98825 1.79652 12.567C1.79441 14.1921 2.19387 15.8099 2.95158 17.2473L3.18195 17.6939C3.46411 18.2182 3.52646 18.8692 3.34364 19.4585C3.09107 20.119 2.88077 20.7617 2.70746 21.4012C3.38168 21.1999 4.20491 20.9032 4.79987 20.6883L5.04398 20.6013C5.50579 20.4304 6.02466 20.6726 6.19375 21.136C6.36283 21.5983 6.12083 22.11 5.65479 22.2767L5.41385 22.3637C4.52405 22.6835 3.30665 23.1228 2.48448 23.3052C2.41474 23.3199 2.3397 23.3293 2.27101 23.3272C1.71938 23.3272 1.38333 23.106 1.19839 22.9194C0.914121 22.6332 0.778854 22.2316 0.794706 21.7263C0.796819 21.6686 0.804217 21.6088 0.817955 21.5512C1.03142 20.6495 1.30935 19.7499 1.64541 18.8787C1.66971 18.7938 1.65492 18.6396 1.58623 18.5107L1.35479 18.0651C0.468164 16.3813 -0.0020994 14.4763 7.04562e-06 12.566C7.04562e-06 6.00481 5.38109 0.667175 11.9944 0.667175H12.0081ZM11.9948 11.1517C12.7821 11.1517 13.4214 11.7871 13.4214 12.5671C13.4214 13.3472 12.7821 13.9825 11.9948 13.9825C11.2075 13.9825 10.5681 13.3472 10.5681 12.5671C10.5681 11.7871 11.2075 11.1517 11.9948 11.1517ZM17.2786 11.1517C18.0659 11.1517 18.7053 11.7871 18.7053 12.5671C18.7053 13.3472 18.0659 13.9825 17.2786 13.9825C16.4913 13.9825 15.852 13.3472 15.852 12.5671C15.852 11.7871 16.4913 11.1517 17.2786 11.1517ZM6.71083 11.1522C7.49812 11.1522 8.13747 11.7865 8.13747 12.5676C8.13747 13.3476 7.49812 13.9819 6.71083 13.9819C5.92353 13.9819 5.28418 13.3476 5.28418 12.5676C5.28418 11.7865 5.92353 11.1522 6.71083 11.1522Z" fill="#42A5F5"/>
</svg>
