<svg width="18" height="24" viewBox="0 0 18 24" fill="none" xmlns="http://www.w3.org/2000/svg">
<path d="M2.03437e-05 0.845786V19.0778C-0.00144228 19.2775 0.0760127 19.47 0.21602 19.6146M2.03437e-05 0.845786L0.499976 0.852424C0.499987 0.851609 0.500002 0.850794 0.50002 0.84998M2.03437e-05 0.845786C0.0026843 0.645126 0.0848148 0.453423 0.228912 0.311522C0.373009 0.169622 0.567681 0.0887439 0.771448 0.0861206M2.03437e-05 0.845786H0.50002V0.84998M0.50002 0.84998V19.0778V19.0814C0.499523 19.1476 0.52456 19.2128 0.572135 19.2635M0.50002 0.84998C0.501547 0.782943 0.529233 0.717518 0.579739 0.667781C0.630552 0.617743 0.700536 0.587704 0.775448 0.586121M0.572135 19.2635L0.566847 19.2583L0.21602 19.6146M0.572135 19.2635C0.573144 19.2646 0.574162 19.2657 0.57519 19.2668L0.21602 19.6146M0.572135 19.2635L4.67751 23.3064L4.3303 23.6661M0.21602 19.6146L4.3303 23.6661M4.3303 23.6661L4.68113 23.3099L4.67888 23.3077C4.73148 23.3578 4.80287 23.3876 4.879 23.389M4.3303 23.6661C4.47607 23.8068 4.67136 23.8866 4.87544 23.889M4.87544 23.889H17.2286M4.87544 23.889L4.88116 23.389C4.88044 23.389 4.87972 23.389 4.879 23.389M4.87544 23.889V23.389H4.879M17.2286 23.889C17.4323 23.8864 17.627 23.8055 17.7711 23.6636C17.9152 23.5217 17.9973 23.33 18 23.1293M17.2286 23.889V23.389H17.2246M17.2286 23.889L17.2221 23.389C17.223 23.389 17.2238 23.389 17.2246 23.389M18 23.1293V0.845786M18 23.1293L17.5 23.1227C17.5 23.1235 17.5 23.1243 17.5 23.1251M18 23.1293H17.5V23.1251M18 0.845786C17.9973 0.645126 17.9152 0.453423 17.7711 0.311522C17.627 0.169622 17.4323 0.0887439 17.2286 0.0861206M18 0.845786H17.5V0.849991M18 0.845786L17.5 0.852425C17.5 0.851613 17.5 0.850802 17.5 0.849991M17.2286 0.0861206H0.771448M17.2286 0.0861206L17.2221 0.586079C17.2229 0.58609 17.2238 0.586103 17.2246 0.586121M17.2286 0.0861206V0.586121H17.2246M0.771448 0.0861206L0.777885 0.586079C0.777072 0.58609 0.77626 0.586103 0.775448 0.586121M0.771448 0.0861206V0.586121H0.775448M0.775448 0.586121H17.2246M17.2246 0.586121C17.2995 0.587704 17.3695 0.617743 17.4203 0.66778C17.4708 0.717519 17.4985 0.782949 17.5 0.849991M17.5 0.849991V23.1251M17.5 23.1251C17.4985 23.1922 17.4708 23.2576 17.4203 23.3073C17.3695 23.3574 17.2995 23.3874 17.2246 23.389M17.2246 23.389H4.879M3.76347 21.6522L4.6143 22.4901V21.296V19.8374V19.3374H4.1143H2.63316H1.41282L2.28233 20.1937L3.76347 21.6522ZM16.4571 22.8696H16.9571V22.3696V1.60545V1.10545H16.4571H1.54288H1.04288V1.60545V18.3181V18.8181H1.54288H4.88175C4.95666 18.8197 5.02663 18.8497 5.07744 18.8998C5.12795 18.9495 5.15563 19.0149 5.15716 19.082V22.3696V22.8696H5.65716H16.4571ZM13.8714 18.5713H13.8715L13.8714 18.5647C13.867 18.2312 13.7304 17.9143 13.4934 17.6808C13.2565 17.4476 12.9381 17.316 12.6064 17.3117L12.6064 17.3117H12.6C12.3502 17.3117 12.1055 17.3846 11.8966 17.522C11.6876 17.6595 11.5236 17.8557 11.4264 18.0867C11.3292 18.3179 11.3036 18.5726 11.3533 18.8185C11.403 19.0643 11.5253 19.2891 11.7037 19.4647L12.0545 19.1085L11.7037 19.4647C11.882 19.6403 12.1082 19.759 12.3534 19.8071C12.5985 19.8551 12.8527 19.8305 13.0841 19.7361C13.3155 19.6417 13.5146 19.4813 13.6552 19.2741C13.7959 19.0668 13.8714 18.8222 13.8714 18.5713ZM13.6429 6.16989H4.35716V5.65056H13.6429V6.16989ZM13.6429 11.2343H4.35716V10.715H13.6429V11.2343ZM8.50001 16.2988H4.35716V15.7794H8.50001V16.2988ZM11.0895 19.5567C10.8911 19.2644 10.7857 18.9214 10.7857 18.5713C10.7857 18.102 10.975 17.6503 11.3144 17.3161C11.6541 16.9816 12.1164 16.7923 12.6 16.7923C12.9605 16.7923 13.3123 16.8976 13.6109 17.0941C13.9094 17.2905 14.1409 17.5688 14.2772 17.893C14.4136 18.2172 14.4491 18.5734 14.3797 18.9169C14.3103 19.2605 14.1388 19.5772 13.8856 19.8266C13.6324 20.0759 13.3088 20.2466 12.9554 20.3159C12.6019 20.3851 12.2357 20.3495 11.9032 20.2139C11.5708 20.0783 11.2879 19.8492 11.0895 19.5567Z" fill="#42A5F5" stroke="#42A5F5"/>
</svg>
