<svg width="26" height="25" viewBox="0 0 26 25" fill="none" xmlns="http://www.w3.org/2000/svg">
<path d="M22.0001 2.90995H18.4002V1.12473C18.4002 0.796109 18.1315 0.529663 17.8002 0.529663C17.4688 0.529663 17.2002 0.796109 17.2002 1.12473V2.90995H8.8004V1.12473C8.8004 0.796109 8.53175 0.529663 8.20041 0.529663C7.86907 0.529663 7.60042 0.796109 7.60042 1.12473V2.90995H3.99993C2.34381 2.91169 1.00176 4.24276 1 5.88531V21.3572C1.00176 22.9997 2.34381 24.3308 3.99993 24.3325H22.0001C23.6563 24.331 24.9985 22.9998 25 21.3572V5.88531C24.9985 4.24269 23.6563 2.91147 22.0001 2.90995ZM23.8 21.3572C23.7989 22.3427 22.9937 23.1413 22.0001 23.1424H3.99993C3.00627 23.1413 2.20107 22.3427 2.19997 21.3572V11.2409H23.8V21.3572ZM23.8 10.0508H2.19997V5.88531C2.20107 4.89979 3.00627 4.10118 3.99993 4.10009H7.60042V5.88531C7.60042 5.88502 7.60042 5.88552 7.60042 5.88531C7.60064 6.21371 7.86922 6.4806 8.20041 6.48038C8.20012 6.48038 8.20063 6.48038 8.20041 6.48038C8.53153 6.48016 8.80062 6.21379 8.8004 5.88531V4.10009H17.2002V5.88531C17.2002 5.88502 17.2002 5.88552 17.2002 5.88531C17.2004 6.21371 17.469 6.4806 17.8002 6.48038C17.7999 6.48038 17.8004 6.48038 17.8002 6.48038C18.1313 6.48016 18.4004 6.21379 18.4002 5.88531V4.10009H22.0001C22.9937 4.10118 23.7989 4.89979 23.8 5.88531V10.0508Z" fill="#42A5F5"/>
<path d="M7.60042 5.88531V4.10009H3.99993C3.00627 4.10118 2.20107 4.89979 2.19997 5.88531V10.0508H23.8V5.88531C23.7989 4.89979 22.9937 4.10118 22.0001 4.10009H18.4002V5.88531C18.4004 6.21379 18.1313 6.48016 17.8002 6.48038M7.60042 5.88531C7.60042 5.88552 7.60042 5.88502 7.60042 5.88531ZM7.60042 5.88531C7.60064 6.21371 7.86922 6.4806 8.20041 6.48038M8.20041 6.48038C8.20063 6.48038 8.20012 6.48038 8.20041 6.48038ZM8.20041 6.48038C8.53153 6.48016 8.80062 6.21379 8.8004 5.88531V4.10009H17.2002V5.88531M17.2002 5.88531C17.2002 5.88552 17.2002 5.88502 17.2002 5.88531ZM17.2002 5.88531C17.2004 6.21371 17.469 6.4806 17.8002 6.48038M17.8002 6.48038C17.8004 6.48038 17.7999 6.48038 17.8002 6.48038ZM22.0001 2.90995H18.4002V1.12473C18.4002 0.796109 18.1315 0.529663 17.8002 0.529663C17.4688 0.529663 17.2002 0.796109 17.2002 1.12473V2.90995H8.8004V1.12473C8.8004 0.796109 8.53175 0.529663 8.20041 0.529663C7.86907 0.529663 7.60042 0.796109 7.60042 1.12473V2.90995H3.99993C2.34381 2.91169 1.00176 4.24276 1 5.88531V21.3572C1.00176 22.9997 2.34381 24.3308 3.99993 24.3325H22.0001C23.6563 24.331 24.9985 22.9998 25 21.3572V5.88531C24.9985 4.24269 23.6563 2.91147 22.0001 2.90995ZM23.8 21.3572C23.7989 22.3427 22.9937 23.1413 22.0001 23.1424H3.99993C3.00627 23.1413 2.20107 22.3427 2.19997 21.3572V11.2409H23.8V21.3572Z" stroke="#42A5F5" stroke-width="0.5"/>
</svg>
