<svg version="1.0" xmlns="http://www.w3.org/2000/svg"
 width="980.000000pt" height="980.000000pt" viewBox="0 0 980.000000 980.000000"
 preserveAspectRatio="xMidYMid meet">

<g transform="translate(0.000000,980.000000) scale(0.100000,-0.100000)"
fill="#ffff" stroke="none">
<path d="M3045 7085 c-68 -19 -186 -79 -219 -111 -33 -34 -92 -151 -111 -224
-34 -127 -13 -289 51 -393 15 -23 344 -360 732 -749 l707 -708 -707 -707
c-388 -390 -717 -727 -732 -750 -93 -151 -89 -361 10 -540 41 -74 73 -103 167
-147 94 -44 152 -57 251 -57 90 0 167 19 236 59 28 15 322 302 757 736 l713
711 707 -707 c390 -388 727 -717 750 -731 158 -98 389 -89 560 22 183 118 243
450 116 654 -14 23 -343 360 -731 750 l-707 707 707 708 c388 389 717 726 731
749 45 71 68 157 68 248 0 104 -13 160 -63 262 -43 89 -80 129 -156 167 -176
89 -381 89 -525 0 -23 -15 -360 -344 -750 -732 l-707 -707 -713 711 c-439 439
-729 721 -757 737 -25 14 -69 32 -99 41 -67 20 -216 20 -286 1z"/>
</g>
</svg>
