<?xml version="1.0" standalone="no"?>
<!DOCTYPE svg PUBLIC "-//W3C//DTD SVG 20010904//EN"
 "http://www.w3.org/TR/2001/REC-SVG-20010904/DTD/svg10.dtd">
<svg version="1.0" xmlns="http://www.w3.org/2000/svg"
 width="100.000000pt" height="100.000000pt" viewBox="0 0 100.000000 100.000000"
 preserveAspectRatio="xMidYMid meet">

<g transform="translate(0.000000,100.000000) scale(0.100000,-0.100000)"
fill="#000000" stroke="none">
<path d="M0 500 l0 -360 500 0 500 0 0 360 0 360 -500 0 -500 0 0 -360z m960
295 c0 -20 -42 -61 -207 -205 -114 -99 -217 -183 -230 -186 -13 -4 -33 -4 -46
0 -12 3 -116 87 -230 186 -164 143 -207 186 -207 205 l0 25 460 0 460 0 0 -25z
m-723 -250 c204 -179 234 -197 300 -177 25 8 102 68 227 177 104 91 191 165
193 165 1 0 3 -119 3 -265 l0 -265 -460 0 -460 0 0 265 c0 146 2 265 4 265 3
0 89 -74 193 -165z"/>
</g>
</svg>
