<svg width="37" height="36" viewBox="0 0 37 36" fill="none" xmlns="http://www.w3.org/2000/svg">
<path d="M36.6 17.8812C36.5985 8.39903 29.1013 0.577678 19.5396 0.0830054C9.97788 -0.411667 1.69865 6.5935 0.699499 16.0239C-0.299651 25.4542 6.33104 34.0087 15.7882 35.4903V23.0338H11.2186V17.8812H15.7882V13.954C15.7882 9.48659 18.4757 7.01891 22.5863 7.01891C23.9363 7.03745 25.2831 7.15362 26.6159 7.3665V11.7537H24.3458C23.5621 11.6507 22.7737 11.9061 22.2032 12.448C21.6326 12.9898 21.3418 13.7592 21.413 14.5389V17.8812H26.4056L25.6069 23.0338H21.413V35.4903C30.1603 34.1199 36.6014 26.6516 36.6 17.8812Z" fill="white"/>
</svg>
