<svg width="37" height="36" viewBox="0 0 37 36" fill="none" xmlns="http://www.w3.org/2000/svg">
<path fill-rule="evenodd" clip-rule="evenodd" d="M10.9788 0.164645C12.8988 0.0790182 13.5115 0.0583496 18.4 0.0583496C23.2885 0.0583496 23.9013 0.0790182 25.8213 0.164645C28.7478 0.296039 31.3165 1.00172 33.379 3.03168C35.4423 5.06237 36.1585 7.59132 36.292 10.4702C36.379 12.3599 36.4 12.9629 36.4 17.7743C36.4 22.5857 36.379 23.1887 36.292 25.0784C36.1585 27.9588 35.4415 30.487 33.379 32.5169C31.3158 34.5476 28.7455 35.2526 25.8213 35.384C23.9013 35.4696 23.2885 35.4903 18.4 35.4903C13.5115 35.4903 12.8988 35.4696 10.9788 35.384C8.05227 35.2526 5.48352 34.5469 3.42102 32.5169C1.35777 30.4862 0.641524 27.9573 0.508024 25.0784C0.421024 23.1887 0.400024 22.5857 0.400024 17.7743C0.400024 12.9629 0.421024 12.3599 0.508024 10.4702C0.641524 7.58984 1.35852 5.06163 3.42102 3.03168C5.48427 1.00099 8.05377 0.296039 10.9788 0.164645ZM25.6737 3.35366C23.7754 3.26803 23.2062 3.25031 18.4002 3.25031C13.5942 3.25031 13.0249 3.26877 11.1267 3.35366C9.07844 3.44593 7.17719 3.8497 5.71469 5.28912C4.25219 6.72854 3.84194 8.59979 3.74819 10.6157C3.66119 12.484 3.64319 13.0443 3.64319 17.7744C3.64319 22.5046 3.66194 23.0649 3.74819 24.9332C3.84194 26.9491 4.25219 28.8203 5.71469 30.2598C7.17719 31.6992 9.07844 32.103 11.1267 32.1952C13.0242 32.2809 13.5934 32.2986 18.4002 32.2986C23.2069 32.2986 23.7762 32.2801 25.6737 32.1952C27.7219 32.103 29.6232 31.6992 31.0857 30.2598C32.5482 28.8203 32.9584 26.9491 33.0522 24.9332C33.1392 23.0649 33.1572 22.5046 33.1572 17.7744C33.1572 13.0443 33.1384 12.484 33.0522 10.6157C32.9584 8.59979 32.5482 6.72854 31.0857 5.28912C29.6232 3.8497 27.7219 3.44593 25.6737 3.35366Z" fill="white"/>
<path fill-rule="evenodd" clip-rule="evenodd" d="M10.2183 18.5797C10.2183 13.6878 14.2472 9.72168 19.2183 9.72168C24.1893 9.72168 28.2183 13.6871 28.2183 18.5797C28.2183 23.4722 24.1893 27.4376 19.2183 27.4376C14.2472 27.4376 10.2183 23.4715 10.2183 18.5797ZM13.3762 18.5795C13.3762 21.755 15.9921 24.3296 19.2185 24.3296C22.4449 24.3296 25.0607 21.755 25.0607 18.5795C25.0607 15.4041 22.4449 12.8295 19.2185 12.8295C15.9921 12.8295 13.3762 15.4041 13.3762 18.5795Z" fill="white"/>
<ellipse cx="27.4001" cy="8.91654" rx="2.45455" ry="2.41581" fill="white"/>
</svg>
