<?xml version="1.0" standalone="no"?>
<!DOCTYPE svg PUBLIC "-//W3C//DTD SVG 20010904//EN"
 "http://www.w3.org/TR/2001/REC-SVG-20010904/DTD/svg10.dtd">
<svg version="1.0" xmlns="http://www.w3.org/2000/svg"
 width="90.000000pt" height="90.000000pt" viewBox="0 0 90.000000 90.000000"
 preserveAspectRatio="xMidYMid meet">

<g transform="translate(0.000000,90.000000) scale(0.100000,-0.100000)"
fill="#000000" stroke="none">
<path d="M230 850 c-19 -19 -20 -33 -20 -400 0 -367 1 -381 20 -400 19 -19 33
-20 220 -20 187 0 201 1 220 20 19 19 20 33 20 400 0 367 -1 381 -20 400 -19
19 -33 20 -220 20 -187 0 -201 -1 -220 -20z m400 -370 l0 -300 -180 0 -180 0
0 300 0 300 180 0 180 0 0 -300z m-155 -360 c0 -18 -6 -26 -23 -28 -13 -2 -25
3 -28 12 -10 26 4 48 28 44 17 -2 23 -10 23 -28z"/>
</g>
</svg>
