<svg width="27" height="31" viewBox="0 0 27 31" fill="none" xmlns="http://www.w3.org/2000/svg">
<path opacity="0.5" fill-rule="evenodd" clip-rule="evenodd" d="M19.8935 9.23684C19.8935 12.7686 17.0305 15.6316 13.4988 15.6316C9.96709 15.6316 7.10407 12.7686 7.10407 9.23684C7.10407 5.70513 9.96709 2.84211 13.4988 2.84211C17.0305 2.84211 19.8935 5.70513 19.8935 9.23684ZM17.3786 17.6218C20.5417 16.1557 22.7356 12.9525 22.7356 9.23684C22.7356 4.13548 18.6002 0 13.4988 0C8.39744 0 4.26196 4.13548 4.26196 9.23684C4.26196 12.9528 6.45631 16.1563 9.6199 17.6222C7.49942 18.2586 5.54797 19.4128 3.95406 21.0067C1.42232 23.5384 0 26.9722 0 30.5526H2.7371C2.7371 27.6981 3.87104 24.9605 5.88948 22.9421C7.90791 20.9237 10.6455 19.7897 13.5 19.7897C16.3545 19.7897 19.0921 20.9237 21.1105 22.9421C23.129 24.9605 24.2629 27.6981 24.2629 30.5526H27C27 26.9722 25.5777 23.5384 23.0459 21.0067C21.4517 19.4124 19.4997 18.2581 17.3786 17.6218Z" fill="#42A5F5"/>
</svg>
