<svg width="31" height="31" viewBox="0 0 31 31" fill="none" xmlns="http://www.w3.org/2000/svg">
<path d="M15.5 22.5086C11.5925 22.5086 8.37817 19.2943 8.37817 15.3867C8.37817 11.4792 11.5925 8.26489 15.5 8.26489C19.4076 8.26489 22.6219 11.4792 22.6219 15.3867C22.6219 19.2943 19.4076 22.5086 15.5 22.5086ZM15.5 9.7775C12.4118 9.7775 9.89078 12.2985 9.89078 15.3867C9.89078 18.475 12.4118 20.996 15.5 20.996C18.5883 20.996 21.1093 18.475 21.1093 15.3867C21.1093 12.2985 18.5883 9.7775 15.5 9.7775Z" fill="#42A5F5"/>
<path d="M17.6429 30.4498H13.3571L12.1597 26.7943C11.3403 26.5422 10.584 26.2271 9.82773 25.8489L6.36134 27.6136L3.33613 24.5884L5.10084 21.122C4.72269 20.3657 4.34454 19.6094 4.15546 18.7901L0.5 17.5926V13.3069L4.15546 12.1094C4.40756 11.2901 4.72269 10.5338 5.10084 9.7775L3.33613 6.31111L6.36134 3.2859L9.82773 5.05061C10.584 4.67246 11.3403 4.29431 12.1597 4.10523L13.3571 0.449768H17.6429L18.8403 4.10523C19.6597 4.35733 20.416 4.67246 21.1723 5.05061L24.6387 3.2859L27.6639 6.31111L25.8992 9.7775C26.2773 10.5338 26.6555 11.2901 26.8445 12.1094L30.5 13.3069V17.5926L26.8445 18.7901C26.5924 19.6094 26.2773 20.3657 25.8992 21.122L27.6639 24.5884L24.6387 27.6136L21.1723 25.8489C20.416 26.2271 19.6597 26.6052 18.8403 26.7943L17.6429 30.4498ZM14.4286 29.0002H16.5714L17.7059 25.5968L18.084 25.4708C19.0294 25.2187 19.9118 24.8405 20.7941 24.3363L21.1723 24.1472L24.3865 25.7859L25.8992 24.2733L24.2605 21.059L24.4496 20.6809C24.9538 19.8615 25.3319 18.9162 25.584 17.9708L25.7101 17.5926L29.1134 16.4582V14.3153L25.7101 13.1809L25.584 12.8027C25.3319 11.8573 24.9538 10.912 24.4496 10.0926L24.2605 9.71447L25.8992 6.50019L24.3865 4.98758L21.1723 6.62624L20.7941 6.43716C19.9748 5.93296 19.0294 5.55481 18.084 5.30271L17.7059 5.17666L16.5714 1.7733H14.4286L13.2941 5.17666L12.916 5.30271C11.9706 5.55481 11.0882 5.93296 10.2059 6.43716L9.82773 6.62624L6.61344 4.98758L5.10084 6.50019L6.7395 9.71447L6.55042 10.0926C6.04622 10.912 5.66807 11.8573 5.41597 12.8027L5.28992 13.1809L1.88655 14.3153V16.4582L5.28992 17.5926L5.41597 17.9708C5.66807 18.9162 6.04622 19.8615 6.55042 20.6809L6.7395 21.059L5.10084 24.2733L6.61344 25.7859L9.82773 24.1472L10.2059 24.3363C11.0252 24.8405 11.9706 25.2187 12.916 25.4708L13.2941 25.5968L14.4286 29.0002Z" fill="#42A5F5"/>
</svg>
