<svg width="37" height="36" viewBox="0 0 37 36" fill="none" xmlns="http://www.w3.org/2000/svg">
<path fill-rule="evenodd" clip-rule="evenodd" d="M18.2 0.0583496C28.1411 0.0583496 36.2 7.99005 36.2 17.7743C36.2 27.5586 28.1411 35.4903 18.2 35.4903C8.25883 35.4903 0.199951 27.5586 0.199951 17.7743C0.199951 7.99005 8.25883 0.0583496 18.2 0.0583496ZM18.7619 12.8521C17.0154 13.5822 13.525 15.093 8.2905 17.3847C7.44047 17.7244 6.99521 18.0568 6.95467 18.3817C6.88618 18.9308 7.5703 19.147 8.50194 19.4414C8.62882 19.4815 8.76029 19.523 8.89507 19.5671C9.81188 19.8665 11.0451 20.2169 11.6862 20.2307C12.2677 20.2434 12.9168 20.0025 13.6334 19.508C18.5242 16.1904 21.0488 14.5135 21.2073 14.4773C21.3191 14.4519 21.4741 14.4198 21.5791 14.5136C21.6841 14.6073 21.6737 14.7849 21.6626 14.8326C21.5948 15.123 18.9085 17.6327 17.5184 18.9314C17.0852 19.3362 16.7778 19.6233 16.715 19.6888C16.5743 19.8358 16.4308 19.9748 16.2929 20.1084C15.4412 20.9335 14.8025 21.5522 16.3283 22.5626C17.0616 23.0482 17.6483 23.4497 18.2337 23.8503C18.8729 24.2878 19.5105 24.7241 20.3354 25.2675C20.5455 25.4059 20.7462 25.5496 20.9416 25.6896C21.6856 26.2227 22.3541 26.7016 23.1799 26.6252C23.6597 26.5809 24.1553 26.1275 24.407 24.7753C25.0019 21.5797 26.171 14.6558 26.4413 11.8027C26.465 11.5527 26.4352 11.2328 26.4113 11.0923C26.3873 10.9519 26.3374 10.7518 26.1557 10.6037C25.9406 10.4283 25.6085 10.3913 25.46 10.3938C24.7846 10.4058 23.7484 10.7679 18.7619 12.8521Z" fill="white"/>
</svg>
