<?xml version="1.0" encoding="utf-8"?>
<!-- Generator: Adobe Illustrator 26.2.1, SVG Export Plug-In . SVG Version: 6.00 Build 0)  -->
<svg version="1.1" id="Layer_1" xmlns="http://www.w3.org/2000/svg" xmlns:xlink="http://www.w3.org/1999/xlink" x="0px" y="0px"
	 viewBox="0 0 100 100" style="enable-background:new 0 0 100 100;" xml:space="preserve">
<style type="text/css">
	.st0{fill:none;stroke:#1D1D1B;stroke-width:12;stroke-miterlimit:10;}
	.st1{fill:none;stroke:#1D1D1B;stroke-width:6;stroke-miterlimit:10;}
	.st2{fill:none;stroke:#1D1D1B;stroke-width:12;stroke-linejoin:bevel;stroke-miterlimit:10;}
	.st3{fill:none;stroke:#1D1D1B;stroke-width:8;stroke-linejoin:bevel;stroke-miterlimit:10;}
	.st4{fill:none;stroke:#1D1D1B;stroke-width:10;stroke-linejoin:bevel;stroke-miterlimit:10;}
	.st5{fill:none;stroke:#1D1D1B;stroke-width:8;stroke-miterlimit:10;}
	.st6{fill:none;stroke:#1D1D1B;stroke-width:8;stroke-linejoin:round;stroke-miterlimit:10;}
	.st7{fill:none;stroke:#1D1D1B;stroke-width:12;stroke-linecap:round;stroke-linejoin:round;stroke-miterlimit:10;}
	.st8{fill:none;stroke:#1D1D1B;stroke-width:8;stroke-linecap:round;stroke-linejoin:round;stroke-miterlimit:10;}
	.st9{fill:none;stroke:#1D1D1B;stroke-width:12;stroke-linejoin:round;stroke-miterlimit:10;}
	.st10{fill:none;stroke:#1D1D1B;stroke-width:6;stroke-linecap:round;stroke-linejoin:round;stroke-miterlimit:10;}
	.st11{fill:none;stroke:#1D1D1B;stroke-linecap:round;stroke-linejoin:round;stroke-miterlimit:10;}
	.st12{fill:#FFFFFF;stroke:#1D1D1B;stroke-width:2;stroke-miterlimit:10;}
	.st13{fill:none;stroke:#1D1D1B;stroke-width:4;stroke-linejoin:round;stroke-miterlimit:10;}
	.st14{fill:#42A5F5;}
	.st15{fill:none;stroke:#FFFFFF;stroke-width:12;stroke-miterlimit:10;}
	.st16{fill:none;stroke:#FFFFFF;stroke-width:6;stroke-miterlimit:10;}
	.st17{fill:none;stroke:#FFFFFF;stroke-width:12;stroke-linejoin:bevel;stroke-miterlimit:10;}
	.st18{fill:none;stroke:#FFFFFF;stroke-width:8;stroke-linejoin:bevel;stroke-miterlimit:10;}
	.st19{fill:none;stroke:#FFFFFF;stroke-width:10;stroke-linejoin:bevel;stroke-miterlimit:10;}
	.st20{fill:none;stroke:#FFFFFF;stroke-width:8;stroke-miterlimit:10;}
	.st21{fill:none;stroke:#FFFFFF;stroke-width:8;stroke-linejoin:round;stroke-miterlimit:10;}
	.st22{fill:none;stroke:#FFFFFF;stroke-width:12;stroke-linecap:round;stroke-linejoin:round;stroke-miterlimit:10;}
	.st23{fill:none;stroke:#FFFFFF;stroke-width:8;stroke-linecap:round;stroke-linejoin:round;stroke-miterlimit:10;}
	.st24{fill:none;stroke:#FFFFFF;stroke-width:12;stroke-linejoin:round;stroke-miterlimit:10;}
	.st25{fill:none;stroke:#FFFFFF;stroke-width:6;stroke-linecap:round;stroke-linejoin:round;stroke-miterlimit:10;}
	.st26{fill:none;stroke:#FFFFFF;stroke-linecap:round;stroke-linejoin:round;stroke-miterlimit:10;}
	.st27{fill:none;stroke:#FFFFFF;stroke-width:2;stroke-miterlimit:10;}
	.st28{fill:#FFFFFF;}
	.st29{fill:none;stroke:#FFFFFF;stroke-width:4;stroke-linejoin:round;stroke-miterlimit:10;}
	.st30{fill:none;stroke:#FFFFFF;stroke-width:2;stroke-linejoin:bevel;stroke-miterlimit:10;}
	.st31{display:none;fill:#FFFFFF;}
	.st32{fill:none;stroke:#FFFFFF;stroke-width:0.75;stroke-linecap:round;stroke-linejoin:round;stroke-miterlimit:10;}
	.st33{fill:none;stroke:#FFFFFF;stroke-width:2;stroke-linecap:round;stroke-linejoin:round;stroke-miterlimit:10;}
	.st34{opacity:0.5;fill:none;stroke:#FFFFFF;stroke-width:12;stroke-miterlimit:10;}
</style>
<image style="display:none;overflow:visible;" width="1280" height="591" xlink:href="8229B2D6.jpg"  transform="matrix(2.053989e-02 1 -1 2.053989e-02 6.7921 -2652.4602)">
</image>
<image style="display:none;overflow:visible;" width="1280" height="591" xlink:href="8229B2DA.jpg"  transform="matrix(0 1.0002 -1.0002 0 -788.5438 -2705.5562)">
</image>
<g>
	<polyline class="st0" points="852.4,-1969.2 782.2,-1915.5 852.4,-1864.9 	"/>
	<polyline class="st1" points="819.4,-1917.9 835.5,-1930.9 835.5,-1919.8 852.4,-1930.9 852.4,-1916.3 	"/>
	<polyline class="st0" points="1309.6,-2234.8 1228.6,-2153.8 1308.5,-2073.8 	"/>
	<polyline class="st2" points="1271.8,-2197 1271.8,-2154.3 1312,-2194.6 1312,-2154.3 	"/>
	<polyline class="st0" points="1108.7,-1966.4 1000.6,-1966.4 1000.6,-1866.2 1108.7,-1866.2 	"/>
	<polyline class="st0" points="975.9,-1758 943.4,-1758 838.9,-1656.7 975.9,-1656.7 	"/>
	<polyline class="st3" points="903.3,-1689 936.9,-1722.6 936.9,-1689 971.6,-1723.7 971.6,-1689 	"/>
	<polyline class="st4" points="1025.7,-1897.3 1062.4,-1934.1 1062.4,-1897.3 1100.4,-1935.3 1100.4,-1897.3 	"/>
	<polyline class="st3" points="1018,-2128.1 1048.4,-2158.5 1048.4,-2128.1 1079.9,-2159.6 1079.9,-2128.1 	"/>
	<polyline class="st0" points="1324.3,-1967.6 1283.1,-1967.6 1216.2,-1914.5 1283.1,-1867.4 1324.3,-1867.4 	"/>
	<polyline class="st4" points="1242.9,-1895.5 1279.6,-1932.3 1279.6,-1895.5 1317.6,-1933.5 1317.6,-1895.5 	"/>
	<polyline class="st3" points="1184.6,-1683.9 1218.1,-1717.5 1218.1,-1683.9 1252.8,-1718.6 1252.8,-1683.9 	"/>
	<polyline class="st0" points="1218.7,-1761.2 1118.3,-1655.5 1221,-1655.5 	"/>
	<polyline class="st0" points="855.8,-2431 783.5,-2431 783.5,-2325.3 855.8,-2325.3 	"/>
	<polyline class="st5" points="819.6,-2363.3 819.6,-2396.2 836.1,-2379.8 853.9,-2397.7 853.9,-2363.3 	"/>
	<polyline class="st6" points="820.4,-2129.2 820.4,-2160.7 836.1,-2145 853.2,-2162.1 853.2,-2129.2 	"/>
	<polyline class="st0" points="1082,-2431 1009.7,-2431 1009.7,-2325.3 1082,-2325.3 	"/>
	<polyline class="st0" points="1084.9,-2192.3 1015.8,-2192.3 1015.8,-2091.3 1084.9,-2091.3 	"/>
	<polyline class="st3" points="1080.2,-2363.3 1080.2,-2397.7 1062.3,-2379.8 1045.9,-2396.2 	"/>
	<polyline class="st7" points="1306.4,-2431 1234.2,-2431 1234.2,-2325.3 1306.4,-2325.3 	"/>
	<polyline class="st8" points="1270.3,-2363.3 1270.3,-2396.2 1286.7,-2379.8 1304.6,-2397.7 1304.6,-2363.3 	"/>
	<path class="st0" d="M853-2197h-27.5c-10,0-19.6,3.1-26.7,8.6l-1.4,1.1c-7.1,5.5-11.1,13-11.1,20.9v42.5c0,7.8,4,15.3,11.1,20.9
		l0,0c7.1,5.5,16.7,8.6,26.7,8.6H853"/>
</g>
<g>
	<polyline class="st7" points="119.1,-2172.1 64.7,-2172.1 119.1,-2068.5 119.1,-2120.3 170.5,-2068.5 170.5,-2120.3 218.8,-2068.5 
			"/>
	<polyline class="st7" points="-94.1,-2173.6 -145.5,-2173.6 -94.1,-2067 -94.1,-2173.1 -44.3,-2067 -44.3,-2173.6 9.4,-2067 	"/>
	<polyline class="st9" points="-310.5,-2173.6 -362.6,-2173.6 -310.5,-2067 -255.2,-2173.6 -255.2,-2067 -201.5,-2173.6 
		-201.5,-2067 	"/>
	<polyline class="st7" points="330.1,-2172.1 275.6,-2172.1 330.1,-2068.5 383,-2120.3 383,-2068.5 438.2,-2118.7 438.2,-2068.5 	
		"/>
	<polyline class="st7" points="330.1,-1969.2 275.6,-1917.4 330.1,-1865.7 383,-1917.4 383,-1865.7 438.2,-1915.9 438.2,-1865.7 	
		"/>
	<polyline class="st7" points="-315.2,-1970 -370.4,-1918.6 -315.2,-1864.9 -259.1,-1970 -259.1,-1864.9 -205.4,-1970 
		-205.4,-1864.9 	"/>
	<polyline class="st7" points="-98.8,-1970 -150.9,-1917.4 -98.8,-1864.9 -98.8,-1969.7 -48.6,-1864.9 -48.6,-1970 6.3,-1864.9 	"/>
	<polyline class="st7" points="114.1,-1970 61.9,-1917.4 114.1,-1864.9 114.1,-1917.4 164.3,-1864.9 164.3,-1916.4 219.2,-1864.9 	
		"/>
	<polyline class="st7" points="330.1,-1750.2 275.6,-1646.7 330.1,-1646.7 383,-1698.4 383,-1646.7 438.2,-1696.9 438.2,-1646.7 	
		"/>
	<polyline class="st7" points="-315.2,-1751 -370.4,-1645.9 -315.2,-1645.9 -259.1,-1751 -259.1,-1645.9 -205.4,-1751 
		-205.4,-1645.9 	"/>
	<polyline class="st7" points="-98.8,-1751 -150.9,-1645.9 -98.8,-1645.9 -98.8,-1750.7 -48.6,-1645.9 -48.6,-1751 6.3,-1645.9 	"/>
	<polyline class="st7" points="114.1,-1751 61.9,-1645.9 114.1,-1645.9 114.1,-1698.4 164.3,-1645.9 164.3,-1697.4 219.2,-1645.9 	
		"/>
	<polyline class="st10" points="143.8,-2265.6 90.7,-2265.6 90.7,-2366.6 143.8,-2366.6 196.3,-2265.6 251.8,-2366.6 251.8,-2265.6 
			"/>
	<polyline class="st7" points="-93,-2265.6 -146.2,-2265.6 -146.2,-2366.6 -93,-2366.6 -40.5,-2265.6 15,-2366.6 15,-2265.6 	"/>
	<polyline class="st7" points="-303.5,-2265.6 -356.7,-2265.6 -356.7,-2366.6 -303.5,-2366.6 -251,-2265.6 -195.6,-2366.6 
		-195.6,-2265.6 	"/>
	<polyline class="st7" points="355.2,-2265.6 302,-2265.6 302,-2366.6 355.2,-2366.6 	"/>
	<polyline class="st10" points="407.7,-2366.4 355.2,-2265.9 302,-2366.4 	"/>
	<line class="st7" x1="411.7" y1="-2265.9" x2="411.7" y2="-2366.3"/>
	<line class="st11" x1="-298.9" y1="-2266.1" x2="-298.9" y2="-2366.2"/>
	<line class="st11" x1="-309.7" y1="-2266.1" x2="-309.7" y2="-2366.2"/>
</g>
<g>
	<polygon class="st12" points="-1368.6,-2462.2 -1368.6,-2351.7 -1305.8,-2351.7 -1305.8,-2365.8 -1354,-2365.8 -1354,-2448.7 
		-1305.8,-2448.7 -1305.8,-2462.2 	"/>
	<polygon class="st12" points="-1319.8,-2432.3 -1305.5,-2418.5 -1260.9,-2462.2 -1247.2,-2462.2 -1247.2,-2351.7 -1261.2,-2351.7 
		-1261.2,-2444 -1305.1,-2402.8 -1319.7,-2415.1 	"/>
	<polygon class="st12" points="-1211.4,-2048.4 -1211.4,-1937.9 -1148.6,-1937.9 -1148.6,-1952 -1196.8,-1952 -1196.8,-2034.9 
		-1148.6,-2034.9 -1148.6,-2048.4 	"/>
	<polygon class="st12" points="-1162.6,-2018.5 -1148.4,-2004.7 -1103.7,-2048.4 -1090,-2048.4 -1090,-1937.9 -1104,-1937.9 
		-1104,-2030.2 -1148,-1989 -1162.5,-2001.3 	"/>
	<polygon class="st12" points="-854.7,-1640.3 -840.5,-1626.6 -795.8,-1670.2 -782.1,-1670.2 -782.1,-1562.7 -796.1,-1562.7 
		-796.1,-1652 -840.1,-1610.8 -854.6,-1623.1 	"/>
	<polygon class="st12" points="-987.2,-2016.2 -976.6,-2007 -932,-2050.6 -918.3,-2050.6 -918.3,-1940.2 -932.3,-1940.2 
		-932.3,-2032.5 -976.2,-1991.2 -987.1,-2000.8 	"/>
	<polygon class="st12" points="-868.8,-2414.8 -823.4,-2459.7 -810.2,-2459.7 -810.2,-2347.5 -824.2,-2347.5 -824.2,-2439.1 
		-868.7,-2396.7 	"/>
	<polygon class="st12" points="-958.6,-2209.4 -913.3,-2254.4 -900,-2254.4 -900,-2142.1 -914.1,-2142.1 -914.1,-2233.7 
		-958.6,-2191.3 	"/>
	<polyline class="st7" points="-1084.9,-2357.2 -1142.2,-2357.2 -1142.2,-2451.8 -1084.9,-2451.8 -1084.9,-2405.1 -1030.7,-2450.6 
		-1030.7,-2357.2 	"/>
	<polyline class="st7" points="-860.9,-1760.5 -918.3,-1760.5 -918.3,-1855.1 -860.9,-1855.1 -860.9,-1808.4 -806.7,-1853.8 
		-806.7,-1760.5 	"/>
	<path class="st7" d="M-685.9-1753.7h-42.5c-8.2,0-14.8-6.6-14.8-14.8v-64.9c0-8.2,6.6-14.8,14.8-14.8h42.5v46.7l54.2-45.5v93.4"/>
	<polyline class="st7" points="-703.9,-1946.5 -703.9,-2039.8 -758.1,-1993.1 -773.8,-2015.4 	"/>
	<path class="st7" d="M-758.1-1946.5h-42.5c-8.2,0-14.8-6.6-14.8-14.8v-64.9c0-8.2,6.6-14.8,14.8-14.8h42.5"/>
	<polyline class="st0" points="-868.8,-2453.4 -924.3,-2453.4 -924.3,-2353.9 -868.8,-2353.9 	"/>
	<polyline class="st0" points="-963.3,-2140.9 -1020.3,-2197.8 -963.1,-2255 	"/>
	<polyline class="st0" points="-1150.2,-2140.9 -1207.1,-2197.8 -1150,-2255 	"/>
	<polyline class="st0" points="-985.2,-1942.1 -1036.8,-1993.8 -985.2,-2045.4 	"/>
	<polyline class="st2" points="-1150,-2198.2 -1093.6,-2254.6 -1093.6,-2140.9 	"/>
	<polyline class="st7" points="-1080.5,-1751.4 -1132.1,-1803 -1080.5,-1854.6 -1080.5,-1803 -1028.4,-1855.1 -1028.4,-1751.1 	"/>
	<polyline class="st0" points="-1262,-1751.4 -1313.7,-1803 -1262,-1854.6 -1262,-1803 -1210,-1855.1 -1210,-1746.9 	"/>
	<polyline class="st0" points="-764.3,-2249.3 -795.6,-2249.3 -812.7,-2232.2 -812.7,-2170 -796.6,-2153.9 -764.3,-2153.9 	"/>
	<polyline class="st0" points="-652.1,-1670.2 -683.4,-1670.2 -700.5,-1653.1 -700.5,-1590.9 -684.5,-1574.8 -652.1,-1574.8 	"/>
	<path class="st0" d="M-648.6-2454.6h-20c-7.3,0-14.3,2.9-19.4,8l-1,1c-5.1,5.1-8,12.1-8,19.4v39.5c0,7.3,2.9,14.3,8,19.4h0
		c5.1,5.1,12.1,8,19.4,8h21"/>
	<path class="st0" d="M-1030.6-1664h-20c-7.3,0-14.3,2.9-19.4,8l-1,1c-5.1,5.1-8,12.1-8,19.4v39.5c0,7.3,2.9,14.3,8,19.4l0,0
		c5.1,5.1,12.1,8,19.4,8h21"/>
	<polyline class="st2" points="-760.2,-2211 -713.8,-2249.3 -713.8,-2147.2 	"/>
	<polyline class="st9" points="-648.2,-2416.4 -601.9,-2454.6 -601.9,-2352.5 	"/>
	<path class="st0" d="M-996.8-1569.1c-27.3,0-27.3-40.6,0-40.6h19.5v46.3"/>
	<path class="st0" d="M-873.8-1579.7c0,14.1-34,17.4-34-5.5v-3.7h34.6c0,0,3.6-20.8-18.9-20.8c-9.8,1-16.4,6.7-15.7,18.4"/>
	<path class="st0" d="M-923.6-1609.7c-14.8-0.8-35.6-3.9-35.6,10.7c0,14.8,33.4,7,33.4,21.5c0,14.2-22.8,10.4-35.9,6.1"/>
	<polyline class="st13" points="-547.7,-1671 -596.9,-1571.6 -653.7,-1674.5 	"/>
	<line class="st0" x1="-543.3" y1="-1568.9" x2="-543.3" y2="-1672.2"/>
	<path class="st0" d="M-895.9-1609.3"/>
	<polygon class="st12" points="-1217.7,-1657.9 -1203.4,-1644.2 -1161.8,-1670.8 -1148.1,-1670.8 -1148.1,-1563.4 -1162.1,-1563.4 
		-1162.1,-1652.7 -1203.1,-1628.4 -1217.6,-1640.8 	"/>
	<path class="st0" d="M-1334.5-1664h-20c-7.3,0-14.3,2.9-19.4,8l-1,1c-5.1,5.1-8,12.1-8,19.4v39.5c0,7.3,2.9,14.3,8,19.4l0,0
		c5.1,5.1,12.1,8,19.4,8h21"/>
	<path class="st0" d="M-1300.7-1569.1c-27.3,0-27.3-40.6,0-40.6h19.5v46.3"/>
	<path class="st0" d="M-1177.8-1579.7c0,14.1-34,17.4-34-5.5v-3.7h34.6c0,0,3.6-20.8-18.9-20.8c-9.8,1-16.4,6.7-15.7,18.4"/>
	<path class="st0" d="M-1227.6-1609.7c-14.8-0.8-35.6-3.9-35.6,10.7c0,14.8,33.4,7,33.4,21.5c0,14.2-22.8,10.4-35.9,6.1"/>
	<path class="st0" d="M-1199.8-1609.3"/>
</g>
<rect x="-1470" y="-1484.1" class="st14" width="1000" height="1000"/>
<rect x="-450" y="-1484.1" class="st14" width="1000" height="1000"/>
<rect x="569.9" y="-1484.1" class="st14" width="1000" height="1000"/>
<g>
	<g>
		<polyline class="st15" points="852.4,-924.8 782.2,-871.2 852.4,-820.6 		"/>
		<polyline class="st16" points="819.4,-873.5 835.5,-886.6 835.5,-875.5 852.4,-886.6 852.4,-872 		"/>
		<polyline class="st15" points="1309.6,-1190.5 1228.6,-1109.4 1308.5,-1029.5 		"/>
		<polyline class="st17" points="1271.8,-1152.7 1271.8,-1110 1312,-1150.3 1312,-1110 		"/>
		<polyline class="st15" points="1108.7,-922.1 1000.6,-922.1 1000.6,-821.9 1108.7,-821.9 		"/>
		<polyline class="st15" points="975.9,-713.7 943.4,-713.7 838.9,-612.3 975.9,-612.3 		"/>
		<polyline class="st18" points="903.3,-644.7 936.9,-678.3 936.9,-644.7 971.6,-679.4 971.6,-644.7 		"/>
		<polyline class="st19" points="1025.7,-853 1062.4,-889.8 1062.4,-853 1100.4,-891 1100.4,-853 		"/>
		<polyline class="st18" points="1018,-1083.7 1048.4,-1114.2 1048.4,-1083.7 1079.9,-1115.3 1079.9,-1083.7 		"/>
		<polyline class="st15" points="1324.3,-923.3 1283.1,-923.3 1216.2,-870.2 1283.1,-823.1 1324.3,-823.1 		"/>
		<polyline class="st19" points="1242.9,-851.2 1279.6,-888 1279.6,-851.2 1317.6,-889.2 1317.6,-851.2 		"/>
		<polyline class="st18" points="1184.6,-639.6 1218.1,-673.1 1218.1,-639.6 1252.8,-674.3 1252.8,-639.6 		"/>
		<polyline class="st15" points="1218.7,-716.9 1118.3,-611.2 1221,-611.2 		"/>
		<polyline class="st15" points="800,-1386.6 727.7,-1386.6 727.7,-1280.9 800,-1280.9 		"/>
		<polyline class="st20" points="763.8,-1319 763.8,-1351.9 780.3,-1335.5 798.1,-1353.3 798.1,-1319 		"/>
		<polyline class="st21" points="820.4,-1084.9 820.4,-1116.4 836.1,-1100.7 853.2,-1117.8 853.2,-1084.9 		"/>
		<polyline class="st15" points="1026.2,-1386.6 953.9,-1386.6 953.9,-1280.9 1026.2,-1280.9 		"/>
		<polyline class="st15" points="1084.9,-1148 1015.8,-1148 1015.8,-1047 1084.9,-1047 		"/>
		<polyline class="st18" points="1024.4,-1319 1024.4,-1353.3 1006.5,-1335.5 990.1,-1351.9 		"/>
		<polyline class="st15" points="1442,-1386.6 1382.5,-1386.6 1369.7,-1373.6 1369.7,-1295.9 1381.4,-1280.9 1442,-1280.9 		"/>
		<polyline class="st18" points="1440.2,-1319 1440.2,-1353.3 1422.3,-1335.5 1405.9,-1351.9 		"/>
		<polyline class="st22" points="1250.6,-1386.6 1178.4,-1386.6 1178.4,-1280.9 1250.6,-1280.9 		"/>
		<polyline class="st23" points="1214.5,-1319 1214.5,-1351.9 1230.9,-1335.5 1248.8,-1353.3 1248.8,-1319 		"/>
		<path class="st15" d="M853-1152.7h-27.5c-10,0-19.6,3.1-26.7,8.6l-1.4,1.1c-7.1,5.5-11.1,13-11.1,20.9v42.5
			c0,7.8,4,15.3,11.1,20.9l0,0c7.1,5.5,16.7,8.6,26.7,8.6H853"/>
	</g>
	<g>
		<polyline class="st22" points="119.1,-1127.7 64.7,-1127.7 119.1,-1024.2 119.1,-1076 170.5,-1024.2 170.5,-1076 218.8,-1024.2 		
			"/>
		<polyline class="st22" points="-94.1,-1129.3 -145.5,-1129.3 -94.1,-1022.6 -94.1,-1128.7 -44.3,-1022.6 -44.3,-1129.3 
			9.4,-1022.6 		"/>
		<polyline class="st24" points="-310.5,-1129.3 -362.6,-1129.3 -310.5,-1022.6 -255.2,-1129.3 -255.2,-1022.6 -201.5,-1129.3 
			-201.5,-1022.6 		"/>
		<polyline class="st22" points="330.1,-1127.7 275.6,-1127.7 330.1,-1024.2 383,-1076 383,-1024.2 438.2,-1074.4 438.2,-1024.2 		
			"/>
		<polyline class="st22" points="330.1,-924.8 275.6,-873.1 330.1,-821.3 383,-873.1 383,-821.3 438.2,-871.5 438.2,-821.3 		"/>
		<polyline class="st22" points="-315.2,-925.6 -370.4,-874.3 -315.2,-820.6 -259.1,-925.6 -259.1,-820.6 -205.4,-925.6 
			-205.4,-820.6 		"/>
		<polyline class="st22" points="-98.8,-925.6 -150.9,-873.1 -98.8,-820.6 -98.8,-925.4 -48.6,-820.6 -48.6,-925.6 6.3,-820.6 		"/>
		<polyline class="st22" points="114.1,-925.6 61.9,-873.1 114.1,-820.6 114.1,-873.1 164.3,-820.6 164.3,-872.1 219.2,-820.6 		"/>
		<polyline class="st22" points="330.1,-705.9 275.6,-602.3 330.1,-602.3 383,-654.1 383,-602.3 438.2,-652.5 438.2,-602.3 		"/>
		<polyline class="st22" points="-315.2,-706.6 -370.4,-601.6 -315.2,-601.6 -259.1,-706.6 -259.1,-601.6 -205.4,-706.6 
			-205.4,-601.6 		"/>
		<polyline class="st22" points="-98.8,-706.6 -150.9,-601.6 -98.8,-601.6 -98.8,-706.4 -48.6,-601.6 -48.6,-706.6 6.3,-601.6 		"/>
		<polyline class="st22" points="114.1,-706.6 61.9,-601.6 114.1,-601.6 114.1,-654.1 164.3,-601.6 164.3,-653.1 219.2,-601.6 		"/>
		<polyline class="st25" points="143.8,-1221.3 90.7,-1221.3 90.7,-1322.3 143.8,-1322.3 196.3,-1221.3 251.8,-1322.3 
			251.8,-1221.3 		"/>
		<polyline class="st22" points="-93,-1221.3 -146.2,-1221.3 -146.2,-1322.3 -93,-1322.3 -40.5,-1221.3 15,-1322.3 15,-1221.3 		"/>
		<polyline class="st22" points="-303.5,-1221.3 -356.7,-1221.3 -356.7,-1322.3 -303.5,-1322.3 -251,-1221.3 -195.6,-1322.3 
			-195.6,-1221.3 		"/>
		<polyline class="st22" points="355.2,-1221.3 302,-1221.3 302,-1322.3 355.2,-1322.3 		"/>
		<polyline class="st25" points="407.7,-1322 355.2,-1221.6 302,-1322 		"/>
		<line class="st22" x1="411.7" y1="-1221.6" x2="411.7" y2="-1322"/>
		<line class="st26" x1="-298.9" y1="-1221.7" x2="-298.9" y2="-1321.9"/>
		<line class="st26" x1="-309.7" y1="-1221.7" x2="-309.7" y2="-1321.9"/>
	</g>
	<g>
		<polygon class="st27" points="-1368.6,-1417.8 -1368.6,-1307.4 -1305.8,-1307.4 -1305.8,-1321.4 -1354,-1321.4 -1354,-1404.4 
			-1305.8,-1404.4 -1305.8,-1417.8 		"/>
		<polygon class="st27" points="-1319.8,-1387.9 -1305.5,-1374.2 -1260.9,-1417.8 -1247.2,-1417.8 -1247.2,-1307.4 -1261.2,-1307.4 
			-1261.2,-1399.7 -1305.1,-1358.4 -1319.7,-1370.8 		"/>
		<polygon class="st28" points="-1368.6,-1205 -1368.6,-1094.5 -1305.8,-1094.5 -1305.8,-1108.5 -1354,-1108.5 -1354,-1191.5 
			-1305.8,-1191.5 -1305.8,-1205 		"/>
		<polygon class="st28" points="-1319.8,-1175.1 -1305.5,-1161.3 -1260.9,-1205 -1247.2,-1205 -1247.2,-1094.5 -1261.2,-1094.5 
			-1261.2,-1186.8 -1305.1,-1145.6 -1319.7,-1157.9 		"/>
		<polygon class="st28" points="-1223.3,-1004 -1223.3,-893.6 -1150.5,-893.6 -1150.5,-907.6 -1208.7,-907.6 -1208.7,-990.6 
			-1150.5,-990.6 -1150.5,-1004 		"/>
		<polygon class="st28" points="-1373.3,-1004 -1373.3,-893.6 -1319.5,-893.6 -1319.5,-907.6 -1358.7,-907.6 -1358.7,-990.6 
			-1319.5,-990.6 -1319.5,-1004 		"/>
		<polygon class="st28" points="-1209.7,-974.1 -1195.5,-960.4 -1150.9,-1004 -1137.1,-1004 -1137.1,-893.6 -1151.2,-893.6 
			-1151.2,-985.9 -1195.1,-944.6 -1209.7,-957 		"/>
		<polygon class="st28" points="-1364.5,-1004.2 -1320.2,-960.4 -1275.6,-1004 -1261.8,-1004 -1261.8,-893.6 -1275.9,-893.6 
			-1275.9,-985.9 -1319.8,-944.6 -1364.4,-987 		"/>
		<polygon class="st27" points="-854.7,-596 -840.5,-582.2 -795.8,-625.9 -782.1,-625.9 -782.1,-518.4 -796.1,-518.4 -796.1,-607.7 
			-840.1,-566.5 -854.6,-578.8 		"/>
		<polygon class="st27" points="-987.2,-971.9 -976.6,-962.6 -932,-1006.3 -918.3,-1006.3 -918.3,-895.8 -932.3,-895.8 
			-932.3,-988.1 -976.2,-946.9 -987.1,-956.4 		"/>
		<polygon class="st27" points="-868.8,-1370.4 -823.4,-1415.4 -810.2,-1415.4 -810.2,-1303.1 -824.2,-1303.1 -824.2,-1394.7 
			-868.7,-1352.4 		"/>
		<polygon class="st27" points="-888.6,-1165.1 -843.3,-1210 -830,-1210 -830,-1097.8 -844.1,-1097.8 -844.1,-1189.4 -888.6,-1147 
					"/>
		<polyline class="st22" points="-1084.9,-1312.9 -1142.2,-1312.9 -1142.2,-1407.5 -1084.9,-1407.5 -1084.9,-1360.8 
			-1030.7,-1406.2 -1030.7,-1312.9 		"/>
		<polyline class="st22" points="-860.9,-716.1 -918.3,-716.1 -918.3,-810.7 -860.9,-810.7 -860.9,-764 -806.7,-809.5 
			-806.7,-716.1 		"/>
		<path class="st22" d="M-685.9-709.3h-42.5c-8.2,0-14.8-6.6-14.8-14.8v-64.9c0-8.2,6.6-14.8,14.8-14.8h42.5v46.7l54.2-45.5v93.4"/>
		<polyline class="st22" points="-703.9,-902.1 -703.9,-995.5 -758.1,-948.8 -773.8,-971.1 		"/>
		<path class="st22" d="M-758.1-902.1h-42.5c-8.2,0-14.8-6.6-14.8-14.8v-64.9c0-8.2,6.6-14.8,14.8-14.8h42.5"/>
		<polyline class="st15" points="-868.8,-1409.1 -924.3,-1409.1 -924.3,-1309.6 -868.8,-1309.6 		"/>
		<polyline class="st15" points="-893.3,-1096.5 -950.3,-1153.5 -893.1,-1210.6 		"/>
		<polyline class="st15" points="-1080.2,-1096.5 -1137.1,-1153.5 -1080,-1210.6 		"/>
		<polyline class="st15" points="-985.2,-897.8 -1036.8,-949.4 -985.2,-1001 		"/>
		<polyline class="st17" points="-1080,-1153.9 -1023.6,-1210.2 -1023.6,-1096.5 		"/>
		<polyline class="st22" points="-1080.5,-707.1 -1132.1,-758.7 -1080.5,-810.3 -1080.5,-758.7 -1028.4,-810.7 -1028.4,-706.8 		"/>
		<polyline class="st15" points="-1262,-707.1 -1313.7,-758.7 -1262,-810.3 -1262,-758.7 -1210,-810.7 -1210,-702.5 		"/>
		<polyline class="st15" points="-694.3,-1205 -725.6,-1205 -742.7,-1187.9 -742.7,-1125.6 -726.6,-1109.6 -694.3,-1109.6 		"/>
		<polyline class="st15" points="-652.1,-625.9 -683.4,-625.9 -700.5,-608.8 -700.5,-546.5 -684.5,-530.5 -652.1,-530.5 		"/>
		<path class="st15" d="M-648.6-1410.3h-20c-7.3,0-14.3,2.9-19.4,8l-1,1c-5.1,5.1-8,12.1-8,19.4v39.5c0,7.3,2.9,14.3,8,19.4h0
			c5.1,5.1,12.1,8,19.4,8h21"/>
		<path class="st15" d="M-1030.6-619.7h-20c-7.3,0-14.3,2.9-19.4,8l-1,1c-5.1,5.1-8,12.1-8,19.4v39.5c0,7.3,2.9,14.3,8,19.4v0
			c5.1,5.1,12.1,8,19.4,8h21"/>
		<polyline class="st17" points="-690.2,-1166.7 -643.8,-1205 -643.8,-1102.8 		"/>
		<polyline class="st24" points="-648.2,-1372.1 -601.9,-1410.3 -601.9,-1308.2 		"/>
		<path class="st15" d="M-996.8-524.8c-27.3,0-27.3-40.6,0-40.6h19.5v46.3"/>
		<path class="st15" d="M-873.8-535.4c0,14.1-34,17.4-34-5.5v-3.7h34.6c0,0,3.6-20.8-18.9-20.8c-9.8,1-16.4,6.7-15.7,18.4"/>
		<path class="st15" d="M-923.6-565.4c-14.8-0.8-35.6-3.9-35.6,10.7c0,14.8,33.4,7,33.4,21.5c0,14.2-22.8,10.4-35.9,6.1"/>
		<polyline class="st29" points="-547.7,-626.7 -596.9,-527.3 -653.7,-630.1 		"/>
		<line class="st15" x1="-543.3" y1="-524.6" x2="-543.3" y2="-627.9"/>
		<path class="st15" d="M-895.9-565"/>
		<polygon class="st27" points="-1217.7,-613.6 -1203.4,-599.9 -1161.8,-626.5 -1148.1,-626.5 -1148.1,-519.1 -1162.1,-519.1 
			-1162.1,-608.3 -1203.1,-584.1 -1217.6,-596.4 		"/>
		<path class="st15" d="M-1334.5-619.7h-20c-7.3,0-14.3,2.9-19.4,8l-1,1c-5.1,5.1-8,12.1-8,19.4v39.5c0,7.3,2.9,14.3,8,19.4v0
			c5.1,5.1,12.1,8,19.4,8h21"/>
		<path class="st15" d="M-1300.7-524.8c-27.3,0-27.3-40.6,0-40.6h19.5v46.3"/>
		<path class="st15" d="M-1177.8-535.4c0,14.1-34,17.4-34-5.5v-3.7h34.6c0,0,3.6-20.8-18.9-20.8c-9.8,1-16.4,6.7-15.7,18.4"/>
		<path class="st15" d="M-1227.6-565.4c-14.8-0.8-35.6-3.9-35.6,10.7c0,14.8,33.4,7,33.4,21.5c0,14.2-22.8,10.4-35.9,6.1"/>
		<path class="st15" d="M-1199.8-565"/>
	</g>
</g>
<rect x="-1470" y="-450" class="st14" width="1000" height="1000"/>
<polygon class="st27" points="-1353,-309.3 -1353,-198.8 -1290.1,-198.8 -1290.1,-212.9 -1338.3,-212.9 -1338.3,-295.8 
	-1290.1,-295.8 -1290.1,-309.3 "/>
<polygon class="st27" points="-1304.1,-279.4 -1289.9,-265.6 -1245.3,-309.3 -1231.5,-309.3 -1231.5,-198.8 -1245.6,-198.8 
	-1245.6,-291.1 -1289.5,-249.9 -1304.1,-262.2 "/>
<polygon class="st28" points="-1102.8,-309.3 -1102.8,-198.8 -1039.9,-198.8 -1039.9,-212.9 -1088.1,-212.9 -1088.1,-295.8 
	-1039.9,-295.8 -1039.9,-309.3 "/>
<polygon class="st28" points="-1054,-279.4 -1039.7,-265.6 -995.1,-309.3 -981.3,-309.3 -981.3,-198.8 -995.4,-198.8 -995.4,-291.1 
	-1039.3,-249.9 -1053.9,-262.2 "/>
<polygon class="st28" points="-654.5,-116.3 -654.5,-5.9 -581.6,-5.9 -581.6,-19.9 -639.8,-19.9 -639.8,-102.9 -581.6,-102.9 
	-581.6,-116.3 "/>
<polygon class="st28" points="-879,-116.3 -879,-5.9 -825.2,-5.9 -825.2,-19.9 -864.4,-19.9 -864.4,-102.9 -825.2,-102.9 
	-825.2,-116.3 "/>
<polygon class="st28" points="-640.9,-86.4 -626.6,-72.7 -582,-116.3 -568.3,-116.3 -568.3,-5.9 -582.3,-5.9 -582.3,-98.2 
	-626.2,-57 -640.8,-69.3 "/>
<polygon class="st28" points="-870.2,-116.5 -825.9,-72.7 -781.2,-116.3 -767.5,-116.3 -767.5,-5.9 -781.5,-5.9 -781.5,-98.2 
	-825.5,-57 -870.1,-99.3 "/>
<polyline class="st15" points="-1259.9,-114 -1332.2,-114 -1332.2,-8.3 -1259.9,-8.3 "/>
<polyline class="st20" points="-1300,-40.9 -1300,-73.9 -1283.6,-57.4 -1265.7,-75.3 -1265.7,-40.9 "/>
<polyline class="st21" points="-809.1,153.1 -809.1,121.6 -793.4,137.3 -776.3,120.3 -776.3,153.1 "/>
<polyline class="st15" points="-1003.8,-114 -1076.1,-114 -1076.1,-8.3 -1003.8,-8.3 "/>
<polyline class="st18" points="-1005.6,-46.3 -1005.6,-80.7 -1023.5,-62.8 -1039.9,-79.2 "/>
<polyline class="st18" points="-1793.8,201.6 -1822,229.9 -1838.5,213.5 "/>
<polyline class="st15" points="-982.1,90.9 -1041.7,90.9 -1054.4,100.9 -1054.4,160.6 -1042.8,172.1 -982.1,172.1 "/>
<polyline class="st18" points="-987,151.5 -987,117.1 -1004.8,135 -1021.3,118.6 "/>
<polyline class="st15" points="-1256.3,92 -1315.9,92 -1328.6,102 -1328.6,161.8 -1317,173.3 -1256.3,173.3 "/>
<polyline class="st15" points="-1586.1,374.7 -1658.6,374.7 -1671.3,384.8 -1671.3,444.5 -1659.7,456 -1586.1,456 "/>
<polyline class="st18" points="-1261.2,152.6 -1261.2,118.3 -1279,136.1 -1295.5,118.3 -1295.5,152.6 "/>
<polyline class="st18" points="-1627.6,237.3 -1627.6,202.9 -1645.5,220.8 -1661.9,202.9 -1661.9,237.3 "/>
<path class="st15" d="M-776.5,85.4H-804c-10,0-19.6,3.1-26.7,8.6l-1.4,1.1c-7.1,5.5-11.1,13-11.1,20.9v42.5c0,7.8,4,15.3,11.1,20.9
	l0,0c7.1,5.5,16.7,8.6,26.7,8.6h28.9"/>
<polyline class="st30" points="-1641.6,163.4 -1592.1,163.4 -1592.1,276.8 -1641.6,276.8 "/>
<line class="st21" x1="-1645.5" y1="166.5" x2="-1645.5" y2="180.1"/>
<line class="st21" x1="-1645.5" y1="261.7" x2="-1645.5" y2="275.3"/>
<polyline class="st18" points="-1641.4,273.8 -1699.2,273.8 -1699.2,166.5 -1641.4,166.5 "/>
<polyline class="st30" points="-1814.3,163.4 -1764.8,163.4 -1764.8,276.8 -1814.3,276.8 "/>
<line class="st21" x1="-1818.3" y1="166.5" x2="-1818.3" y2="180.1"/>
<line class="st21" x1="-1818.3" y1="261.7" x2="-1818.3" y2="275.3"/>
<polyline class="st18" points="-1814.2,273.8 -1872,273.8 -1872,166.5 -1814.2,166.5 "/>
<polygon class="st31" points="-1228.5,322.1 -1228.5,429.5 -1170.7,429.5 -1170.7,448.7 -1244,448.7 -1244,303.2 -1170.7,303.2 
	-1170.7,322.1 "/>
<polygon class="st32" points="-1835.7,210.6 -1842.1,216.6 -1842.1,246.4 -1835.7,246.4 "/>
<polygon class="st32" points="-1797.6,197.4 -1791.3,205.6 -1791.3,246.4 -1797.6,246.4 "/>
<polyline class="st18" points="-1589.7,396.8 -1617.9,425 -1634.4,408.6 "/>
<polygon class="st33" points="-1631.6,407 -1638,411.8 -1638,433.5 -1631.6,433.5 "/>
<polygon class="st33" points="-1593.5,396.1 -1587.1,400.7 -1587.1,433.5 -1593.5,433.5 "/>
<polyline class="st15" points="-1599.1,515.6 -1658.6,515.6 -1671.3,525.7 -1671.3,585.4 -1659.7,596.9 -1599.1,596.9 "/>
<polyline class="st18" points="-1601.7,537.7 -1629.9,565.9 -1646.4,549.5 "/>
<polygon class="st33" points="-1643.6,547.9 -1650,552.7 -1650,574.4 -1643.6,574.4 "/>
<polygon class="st33" points="-1605.5,537 -1599.1,541.6 -1599.1,574.4 -1605.5,574.4 "/>
<polyline class="st15" points="-1045.5,325.8 -1105,325.8 -1117.8,335.8 -1117.8,395.5 -1106.2,407 -1045.5,407 "/>
<polyline class="st34" points="-1097.8,406.9 -1038.2,406.9 -1025.5,396.8 -1025.5,337.1 -1037.1,325.6 -1097.8,325.6 "/>
<polyline class="st15" points="-1544.4,706.5 -1484.8,706.5 -1472.1,696.5 -1472.1,636.7 -1483.7,625.2 -1544.4,625.2 "/>
<polyline class="st18" points="-1048.1,347.8 -1076.4,376.1 -1092.8,359.6 "/>
<polygon class="st33" points="-1090,358 -1096.4,362.8 -1096.4,384.6 -1090,384.6 "/>
<polygon class="st33" points="-1051.9,347.1 -1045.6,351.8 -1045.6,384.6 -1051.9,384.6 "/>
<polyline class="st15" points="-876.2,325.8 -935.7,325.8 -948.5,335.8 -948.5,395.5 -936.8,407 -876.2,407 "/>
<polyline class="st34" points="-928.5,406.9 -868.9,406.9 -856.2,396.8 -856.2,337.1 -867.8,325.6 -928.5,325.6 "/>
<polyline class="st18" points="-878.8,347.8 -907,383.1 -923.5,359.6 "/>
<polygon class="st33" points="-920.7,358 -927.1,362.8 -927.1,384.6 -920.7,384.6 "/>
<polygon class="st33" points="-882.6,347.1 -876.3,351.8 -876.3,384.6 -882.6,384.6 "/>
<rect x="-1657.5" y="762.8" class="st28" width="106.6" height="112.3"/>
<polyline class="st15" points="-1212.3,325.8 -1271.9,325.8 -1284.6,335.8 -1284.6,405.5 -1273,417 -1212.3,417 "/>
<polyline class="st34" points="-1264.6,416.9 -1205.1,416.9 -1192.3,406.8 -1192.3,337.1 -1203.9,325.6 -1264.6,325.6 "/>
<polyline class="st18" points="-1214.9,353.8 -1243.2,382.1 -1259.6,365.6 "/>
<polygon class="st33" points="-1256.8,364 -1263.2,368.8 -1263.2,390.6 -1256.8,390.6 "/>
<polygon class="st33" points="-1218.8,353.1 -1212.4,357.8 -1212.4,390.6 -1218.8,390.6 "/>
<g>
	<polyline class="st15" points="74.5,7.2 18.7,7.2 6.7,16.6 6.7,82 17.6,92.8 74.5,92.8 	"/>
	<polyline class="st34" points="25.5,92.8 81.3,92.8 93.3,83.4 93.3,18 82.4,7.2 25.5,7.2 	"/>
	<polyline class="st18" points="72.1,33.6 45.6,60.1 30.1,44.7 	"/>
	<polygon class="st33" points="34.2,45.4 28.2,47.9 28.2,68.1 34.2,68.1 	"/>
	<polygon class="st33" points="68,33.9 73.9,36.8 73.9,68.1 68,68.1 	"/>
</g>
</svg>
