<svg width="28" height="32" viewBox="0 0 28 32" fill="none" xmlns="http://www.w3.org/2000/svg">
<path d="M26.7604 6.78571C27.1007 7.11905 27.3924 7.57143 27.6354 8.14286C27.8785 8.71429 28 9.2381 28 9.71429V30.2857C28 30.7619 27.8299 31.1667 27.4896 31.5C27.1493 31.8333 26.7361 32 26.25 32H1.75C1.26389 32 0.850694 31.8333 0.510417 31.5C0.170139 31.1667 0 30.7619 0 30.2857V1.71429C0 1.2381 0.170139 0.833333 0.510417 0.5C0.850694 0.166667 1.26389 0 1.75 0H18.0833C18.5694 0 19.1042 0.119048 19.6875 0.357143C20.2708 0.595238 20.7326 0.880952 21.0729 1.21429L26.7604 6.78571ZM18.6667 2.42857V9.14286H25.5208C25.3993 8.79762 25.2656 8.55357 25.1198 8.41072L19.4141 2.82143C19.2682 2.67857 19.0191 2.54762 18.6667 2.42857ZM25.6667 29.7143V11.4286H18.0833C17.5972 11.4286 17.184 11.2619 16.8438 10.9286C16.5035 10.5952 16.3333 10.1905 16.3333 9.71429V2.28571H2.33333V29.7143H25.6667ZM8.75 13.7143C8.84722 13.5833 8.97483 13.5089 9.13281 13.4911C9.2908 13.4732 9.43663 13.5119 9.57031 13.6071L10.5 14.2857C10.6337 14.381 10.7096 14.506 10.7279 14.6607C10.7461 14.8155 10.7066 14.9583 10.6094 15.0893L7.29167 19.4286L10.6094 23.7679C10.7066 23.8988 10.7461 24.0417 10.7279 24.1964C10.7096 24.3512 10.6337 24.4762 10.5 24.5714L9.57031 25.25C9.43663 25.3452 9.2908 25.3839 9.13281 25.3661C8.97483 25.3482 8.84722 25.2738 8.75 25.1429L4.63021 19.7679C4.46007 19.5417 4.46007 19.3155 4.63021 19.0893L8.75 13.7143ZM23.3698 19.0893C23.5399 19.3155 23.5399 19.5417 23.3698 19.7679L19.25 25.1429C19.1528 25.2738 19.0252 25.3482 18.8672 25.3661C18.7092 25.3839 18.5634 25.3452 18.4297 25.25L17.5 24.5714C17.3663 24.4762 17.2904 24.3512 17.2721 24.1964C17.2539 24.0417 17.2934 23.8988 17.3906 23.7679L20.7083 19.4286L17.3906 15.0893C17.2934 14.9583 17.2539 14.8155 17.2721 14.6607C17.2904 14.506 17.3663 14.381 17.5 14.2857L18.4297 13.6071C18.5634 13.5119 18.7092 13.4732 18.8672 13.4911C19.0252 13.5089 19.1528 13.5833 19.25 13.7143L23.3698 19.0893ZM12.0677 27.3214C11.9097 27.2976 11.7852 27.2202 11.694 27.0893C11.6029 26.9583 11.5694 26.8155 11.5938 26.6607L14.1094 11.8214C14.1337 11.6667 14.2127 11.5446 14.3464 11.4554C14.48 11.3661 14.6259 11.3333 14.7839 11.3571L15.9323 11.5357C16.0903 11.5595 16.2148 11.6369 16.306 11.7679C16.3971 11.8988 16.4306 12.0417 16.4062 12.1964L13.8906 27.0357C13.8663 27.1905 13.7873 27.3125 13.6536 27.4018C13.52 27.4911 13.3741 27.5238 13.2161 27.5L12.0677 27.3214Z" fill="#42A5F5"/>
</svg>
