<svg width="27" height="32" viewBox="0 0 27 32" fill="none" xmlns="http://www.w3.org/2000/svg">
<path d="M25.8047 6.78571C26.1328 7.11905 26.4141 7.57143 26.6484 8.14286C26.8828 8.71429 27 9.2381 27 9.71429V30.2857C27 30.7619 26.8359 31.1667 26.5078 31.5C26.1797 31.8333 25.7812 32 25.3125 32H1.6875C1.21875 32 0.820312 31.8333 0.492188 31.5C0.164063 31.1667 0 30.7619 0 30.2857V1.71429C0 1.2381 0.164063 0.833333 0.492188 0.5C0.820312 0.166667 1.21875 0 1.6875 0H17.4375C17.9062 0 18.4219 0.119048 18.9844 0.357143C19.5469 0.595238 19.9922 0.880952 20.3203 1.21429L25.8047 6.78571ZM18 2.42857V9.14286H24.6094C24.4922 8.79762 24.3633 8.55357 24.2227 8.41072L18.7207 2.82143C18.5801 2.67857 18.3398 2.54762 18 2.42857ZM24.75 29.7143V11.4286H17.4375C16.9688 11.4286 16.5703 11.2619 16.2422 10.9286C15.9141 10.5952 15.75 10.1905 15.75 9.71429V2.28571H2.25V29.7143H24.75ZM4.0957 13.7143V15.625H5.32617L8.20898 27.4286H11.0039L13.2539 18.7679C13.3359 18.5298 13.3945 18.256 13.4297 17.9464C13.4531 17.756 13.4648 17.6131 13.4648 17.5179H13.5352L13.5879 17.9464C13.5996 17.9821 13.6201 18.1012 13.6494 18.3036C13.6787 18.506 13.7109 18.6607 13.7461 18.7679L15.9961 27.4286H18.791L21.6738 15.625H22.9043V13.7143H17.6309V15.625H19.2129L17.4727 23.4464C17.4141 23.6845 17.373 23.9583 17.3496 24.2679L17.3145 24.6429H17.2441L17.1914 24.2679C17.1797 24.2083 17.1562 24.0833 17.1211 23.8929C17.0859 23.7024 17.0566 23.5536 17.0332 23.4464L14.502 13.7143H12.498L9.9668 23.4464C9.94336 23.5536 9.91699 23.6994 9.8877 23.8839C9.8584 24.0685 9.83789 24.1964 9.82617 24.2679L9.75586 24.6429H9.68555L9.65039 24.2679C9.62695 23.9583 9.58594 23.6845 9.52734 23.4464L7.78711 15.625H9.36914V13.7143H4.0957Z" fill="#42A5F5"/>
</svg>
