<svg width="28" height="32" viewBox="0 0 28 32" fill="none" xmlns="http://www.w3.org/2000/svg">
<path d="M26.7604 6.78571C27.1007 7.11905 27.3924 7.57143 27.6354 8.14286C27.8785 8.71429 28 9.2381 28 9.71429V30.2857C28 30.7619 27.8299 31.1667 27.4896 31.5C27.1493 31.8333 26.7361 32 26.25 32H1.75C1.26389 32 0.850694 31.8333 0.510417 31.5C0.170139 31.1667 0 30.7619 0 30.2857V1.71429C0 1.2381 0.170139 0.833333 0.510417 0.5C0.850694 0.166667 1.26389 0 1.75 0H18.0833C18.5694 0 19.1042 0.119048 19.6875 0.357143C20.2708 0.595238 20.7326 0.880952 21.0729 1.21429L26.7604 6.78571ZM18.6667 2.42857V9.14286H25.5208C25.3993 8.79762 25.2656 8.55357 25.1198 8.41072L19.4141 2.82143C19.2682 2.67857 19.0191 2.54762 18.6667 2.42857ZM25.6667 29.7143V11.4286H18.0833C17.5972 11.4286 17.184 11.2619 16.8438 10.9286C16.5035 10.5952 16.3333 10.1905 16.3333 9.71429V2.28571H2.33333V29.7143H25.6667ZM23.3333 21.7143V27.4286H4.66667V24L8.16667 20.5714L10.5 22.8571L17.5 16L23.3333 21.7143ZM8.16667 18.2857C7.19444 18.2857 6.36806 17.9524 5.6875 17.2857C5.00694 16.619 4.66667 15.8095 4.66667 14.8571C4.66667 13.9048 5.00694 13.0952 5.6875 12.4286C6.36806 11.7619 7.19444 11.4286 8.16667 11.4286C9.13889 11.4286 9.96528 11.7619 10.6458 12.4286C11.3264 13.0952 11.6667 13.9048 11.6667 14.8571C11.6667 15.8095 11.3264 16.619 10.6458 17.2857C9.96528 17.9524 9.13889 18.2857 8.16667 18.2857Z" fill="#42A5F5"/>
</svg>
