<svg width="28" height="32" viewBox="0 0 28 32" fill="none" xmlns="http://www.w3.org/2000/svg">
<path d="M26.7604 6.78571C27.1007 7.11905 27.3924 7.57143 27.6354 8.14286C27.8785 8.71429 28 9.2381 28 9.71429V30.2857C28 30.7619 27.8299 31.1667 27.4896 31.5C27.1493 31.8333 26.7361 32 26.25 32H1.75C1.26389 32 0.850694 31.8333 0.510417 31.5C0.170139 31.1667 0 30.7619 0 30.2857V1.71429C0 1.2381 0.170139 0.833333 0.510417 0.5C0.850694 0.166667 1.26389 0 1.75 0H18.0833C18.5694 0 19.1042 0.119048 19.6875 0.357143C20.2708 0.595238 20.7326 0.880952 21.0729 1.21429L26.7604 6.78571ZM18.6667 2.42857V9.14286H25.5208C25.3993 8.79762 25.2656 8.55357 25.1198 8.41072L19.4141 2.82143C19.2682 2.67857 19.0191 2.54762 18.6667 2.42857ZM25.6667 29.7143V11.4286H18.0833C17.5972 11.4286 17.184 11.2619 16.8438 10.9286C16.5035 10.5952 16.3333 10.1905 16.3333 9.71429V2.28571H2.33333V29.7143H25.6667ZM11.3021 15.1786C11.5451 15.2738 11.6667 15.4524 11.6667 15.7143V25.4286C11.6667 25.6905 11.5451 25.869 11.3021 25.9643C11.2049 25.9881 11.1319 26 11.0833 26C10.9375 26 10.7977 25.9464 10.6641 25.8393L7.63802 22.8571H5.25C5.07986 22.8571 4.9401 22.8036 4.83073 22.6964C4.72135 22.5893 4.66667 22.4524 4.66667 22.2857V18.8571C4.66667 18.6905 4.72135 18.5536 4.83073 18.4464C4.9401 18.3393 5.07986 18.2857 5.25 18.2857H7.63802L10.6641 15.3036C10.8585 15.125 11.0712 15.0833 11.3021 15.1786ZM18.9036 27.4821C19.2804 27.4821 19.5842 27.3393 19.8151 27.0536C21.3828 25.1607 22.1667 23 22.1667 20.5714C22.1667 18.1429 21.3828 15.9821 19.8151 14.0893C19.6207 13.8393 19.3594 13.6964 19.0312 13.6607C18.7031 13.625 18.4175 13.7083 18.1745 13.9107C17.9193 14.1131 17.7765 14.372 17.7461 14.6875C17.7157 15.003 17.8038 15.2857 18.0104 15.5357C19.2257 17 19.8333 18.6786 19.8333 20.5714C19.8333 22.4643 19.2257 24.1429 18.0104 25.6071C17.8038 25.8571 17.7157 26.1399 17.7461 26.4554C17.7765 26.7708 17.9193 27.0238 18.1745 27.2143C18.3932 27.3929 18.6363 27.4821 18.9036 27.4821ZM15.0573 24.8393C15.3854 24.8393 15.671 24.7202 15.9141 24.4821C16.9714 23.375 17.5 22.0714 17.5 20.5714C17.5 19.0714 16.9714 17.7679 15.9141 16.6607C15.6953 16.4345 15.4219 16.3155 15.0937 16.3036C14.7656 16.2917 14.4861 16.3929 14.2552 16.6071C14.0243 16.8214 13.9028 17.0863 13.8906 17.4018C13.8785 17.7173 13.9878 17.994 14.2187 18.2321C14.8507 18.9107 15.1667 19.6905 15.1667 20.5714C15.1667 21.4524 14.8507 22.2321 14.2187 22.9107C13.9878 23.1488 13.8785 23.4256 13.8906 23.7411C13.9028 24.0565 14.0243 24.3214 14.2552 24.5357C14.4983 24.7381 14.7656 24.8393 15.0573 24.8393Z" fill="#42A5F5"/>
</svg>
