<svg width="28" height="32" viewBox="0 0 28 32" fill="none" xmlns="http://www.w3.org/2000/svg">
<path d="M26.7604 6.78571C27.1007 7.11905 27.3924 7.57143 27.6354 8.14286C27.8785 8.71429 28 9.2381 28 9.71429V30.2857C28 30.7619 27.8299 31.1667 27.4896 31.5C27.1493 31.8333 26.7361 32 26.25 32H1.75C1.26389 32 0.850694 31.8333 0.510417 31.5C0.170139 31.1667 0 30.7619 0 30.2857V1.71429C0 1.2381 0.170139 0.833333 0.510417 0.5C0.850694 0.166667 1.26389 0 1.75 0H18.0833C18.5694 0 19.1042 0.119048 19.6875 0.357143C20.2708 0.595238 20.7326 0.880952 21.0729 1.21429L26.7604 6.78571ZM18.6667 2.42857V9.14286H25.5208C25.3993 8.79762 25.2656 8.55357 25.1198 8.41072L19.4141 2.82143C19.2682 2.67857 19.0191 2.54762 18.6667 2.42857ZM25.6667 29.7143V11.4286H18.0833C17.5972 11.4286 17.184 11.2619 16.8438 10.9286C16.5035 10.5952 16.3333 10.1905 16.3333 9.71429V2.28571H2.33333V29.7143H25.6667ZM14 13.7143C14.6319 13.7143 15.1788 13.9405 15.6406 14.3929C16.1024 14.8452 16.3333 15.381 16.3333 16V22.8571C16.3333 23.4762 16.1024 24.0119 15.6406 24.4643C15.1788 24.9167 14.6319 25.1429 14 25.1429H7C6.36806 25.1429 5.82118 24.9167 5.35938 24.4643C4.89757 24.0119 4.66667 23.4762 4.66667 22.8571V16C4.66667 15.381 4.89757 14.8452 5.35938 14.3929C5.82118 13.9405 6.36806 13.7143 7 13.7143H14ZM22.9688 13.75C23.2118 13.8452 23.3333 14.0238 23.3333 14.2857V24.5714C23.3333 24.8333 23.2118 25.0119 22.9688 25.1071C22.8715 25.131 22.7986 25.1429 22.75 25.1429C22.5799 25.1429 22.4401 25.0893 22.3307 24.9821L17.5 20.2321V18.625L22.3307 13.875C22.4401 13.7679 22.5799 13.7143 22.75 13.7143C22.7986 13.7143 22.8715 13.7262 22.9688 13.75Z" fill="#42A5F5"/>
</svg>
