<svg width="28" height="32" viewBox="0 0 28 32" fill="none" xmlns="http://www.w3.org/2000/svg">
<path d="M26.7604 6.78571C27.1007 7.11905 27.3924 7.57143 27.6354 8.14286C27.8785 8.71429 28 9.2381 28 9.71429V30.2857C28 30.7619 27.8299 31.1667 27.4896 31.5C27.1493 31.8333 26.7361 32 26.25 32H1.75C1.26389 32 0.850694 31.8333 0.510417 31.5C0.170139 31.1667 0 30.7619 0 30.2857V1.71429C0 1.2381 0.170139 0.833333 0.510417 0.5C0.850694 0.166667 1.26389 0 1.75 0H18.0833C18.5694 0 19.1042 0.119048 19.6875 0.357143C20.2708 0.595238 20.7326 0.880952 21.0729 1.21429L26.7604 6.78571ZM18.6667 2.42857V9.14286H25.5208C25.3993 8.79762 25.2656 8.55357 25.1198 8.41072L19.4141 2.82143C19.2682 2.67857 19.0191 2.54762 18.6667 2.42857ZM25.6667 29.7143V11.4286H18.0833C17.5972 11.4286 17.184 11.2619 16.8438 10.9286C16.5035 10.5952 16.3333 10.1905 16.3333 9.71429V2.28571H2.33333V29.7143H25.6667ZM16.2969 19.125C16.6979 19.4345 17.2083 19.7679 17.8281 20.125C18.5451 20.0417 19.2561 20 19.9609 20C21.7474 20 22.8229 20.2917 23.1875 20.875C23.3819 21.1369 23.3941 21.4464 23.224 21.8036C23.224 21.8155 23.2179 21.8274 23.2057 21.8393L23.1693 21.875V21.8929C23.0964 22.3452 22.6649 22.5714 21.875 22.5714C21.2917 22.5714 20.5929 22.4524 19.7786 22.2143C18.9644 21.9762 18.1745 21.6607 17.4089 21.2679C14.7231 21.5536 12.3411 22.0476 10.263 22.75C8.40365 25.869 6.93316 27.4286 5.85156 27.4286C5.66927 27.4286 5.49913 27.3869 5.34115 27.3036L4.90365 27.0893C4.89149 27.0774 4.85503 27.0476 4.79427 27C4.67274 26.881 4.63628 26.6667 4.6849 26.3571C4.79427 25.881 5.13455 25.3363 5.70573 24.7232C6.27691 24.1101 7.07899 23.5357 8.11198 23C8.28212 22.8929 8.42188 22.9286 8.53125 23.1071C8.55556 23.131 8.56771 23.1548 8.56771 23.1786C9.19965 22.1667 9.84983 20.994 10.5182 19.6607C11.3446 18.0417 11.9766 16.4821 12.4141 14.9821C12.1224 14.006 11.9371 13.0565 11.8581 12.1339C11.7791 11.2113 11.8186 10.4524 11.9766 9.85714C12.1102 9.38095 12.3655 9.14286 12.7422 9.14286H13.1432C13.4227 9.14286 13.6354 9.23214 13.7812 9.41072C14 9.66072 14.0547 10.0655 13.9453 10.625C13.921 10.6964 13.8967 10.744 13.8724 10.7679C13.8845 10.8036 13.8906 10.8512 13.8906 10.9107V11.4464C13.8663 12.9107 13.7812 14.0536 13.6354 14.875C14.3038 16.8274 15.191 18.244 16.2969 19.125ZM5.79688 26.4643C6.42882 26.1786 7.26128 25.2381 8.29427 23.6429C7.67448 24.119 7.1428 24.619 6.69922 25.1429C6.25564 25.6667 5.95486 26.1071 5.79688 26.4643ZM13.0521 10.0357C12.8698 10.5357 12.8576 11.3214 13.0156 12.3929C13.0278 12.3095 13.0703 12.0476 13.1432 11.6071C13.1432 11.5714 13.1858 11.3155 13.2708 10.8393C13.283 10.7917 13.3073 10.744 13.3438 10.6964C13.3316 10.6845 13.3255 10.6726 13.3255 10.6607C13.3255 10.6488 13.3225 10.6399 13.3164 10.6339C13.3103 10.628 13.3073 10.619 13.3073 10.6071C13.2951 10.3452 13.2161 10.131 13.0703 9.96429C13.0703 9.97619 13.0642 9.9881 13.0521 10V10.0357ZM10.7917 21.8393C12.4323 21.1964 14.158 20.7143 15.9687 20.3929C15.9444 20.381 15.8655 20.3244 15.7318 20.2232C15.5981 20.122 15.5009 20.0417 15.4401 19.9821C14.5165 19.1845 13.7448 18.1369 13.125 16.8393C12.7969 17.8631 12.2925 19.0357 11.612 20.3571C11.2474 21.0238 10.974 21.5179 10.7917 21.8393ZM22.5677 21.5536C22.276 21.2679 21.4253 21.125 20.0156 21.125C20.9392 21.4583 21.6927 21.625 22.276 21.625C22.4462 21.625 22.5556 21.619 22.6042 21.6071C22.6042 21.5952 22.592 21.5774 22.5677 21.5536Z" fill="#42A5F5"/>
</svg>
