<svg width="28" height="32" viewBox="0 0 28 32" fill="none" xmlns="http://www.w3.org/2000/svg">
<path d="M26.7604 6.78571C27.1007 7.11905 27.3924 7.57143 27.6354 8.14286C27.8785 8.71429 28 9.2381 28 9.71429V30.2857C28 30.7619 27.8299 31.1667 27.4896 31.5C27.1493 31.8333 26.7361 32 26.25 32H1.75C1.26389 32 0.850694 31.8333 0.510417 31.5C0.170139 31.1667 0 30.7619 0 30.2857V1.71429C0 1.2381 0.170139 0.833333 0.510417 0.5C0.850694 0.166667 1.26389 0 1.75 0H18.0833C18.5694 0 19.1042 0.119048 19.6875 0.357143C20.2708 0.595238 20.7326 0.880952 21.0729 1.21429L26.7604 6.78571ZM18.6667 2.42857V9.14286H25.5208C25.3993 8.79762 25.2656 8.55357 25.1198 8.41072L19.4141 2.82143C19.2682 2.67857 19.0191 2.54762 18.6667 2.42857ZM25.6667 29.7143V11.4286H18.0833C17.5972 11.4286 17.184 11.2619 16.8438 10.9286C16.5035 10.5952 16.3333 10.1905 16.3333 9.71429V2.28571H2.33333V29.7143H25.6667ZM7.58333 25.5357V27.4286H13.5443V25.5357H11.849V22.5536H14.3464C15.27 22.5536 15.987 22.4643 16.4974 22.2857C17.3116 22.0119 17.9588 21.494 18.4388 20.7321C18.9188 19.9702 19.1589 19.1012 19.1589 18.125C19.1589 17.1607 18.934 16.3214 18.4844 15.6071C18.0347 14.8929 17.4271 14.375 16.6615 14.0536C16.0781 13.8274 15.2882 13.7143 14.2917 13.7143H7.58333V15.625H9.26042V25.5357H7.58333ZM14.0182 20.5357H11.849V15.75H14.0365C14.6684 15.75 15.1727 15.8571 15.5495 16.0714C16.23 16.4643 16.5703 17.1488 16.5703 18.125C16.5703 19.1845 16.1936 19.8988 15.4401 20.2679C15.0634 20.4464 14.5894 20.5357 14.0182 20.5357Z" fill="#42A5F5"/>
</svg>
