<svg width="28" height="32" viewBox="0 0 28 32" fill="none" xmlns="http://www.w3.org/2000/svg">
<path d="M26.7604 6.78571C27.1007 7.11905 27.3924 7.57143 27.6354 8.14286C27.8785 8.71429 28 9.2381 28 9.71429V30.2857C28 30.7619 27.8299 31.1667 27.4896 31.5C27.1493 31.8333 26.7361 32 26.25 32H1.75C1.26389 32 0.850694 31.8333 0.510417 31.5C0.170139 31.1667 0 30.7619 0 30.2857V1.71429C0 1.2381 0.170139 0.833333 0.510417 0.5C0.850694 0.166667 1.26389 0 1.75 0H18.0833C18.5694 0 19.1042 0.119048 19.6875 0.357143C20.2708 0.595238 20.7326 0.880952 21.0729 1.21429L26.7604 6.78571ZM18.6667 2.42857V9.14286H25.5208C25.3993 8.79762 25.2656 8.55357 25.1198 8.41072L19.4141 2.82143C19.2682 2.67857 19.0191 2.54762 18.6667 2.42857ZM25.6667 29.7143V11.4286H18.0833C17.5972 11.4286 17.184 11.2619 16.8438 10.9286C16.5035 10.5952 16.3333 10.1905 16.3333 9.71429V2.28571H2.33333V29.7143H25.6667ZM7.82031 25.5357V27.4286H12.9427V25.5357H11.5755L13.4531 22.6607C13.5139 22.5774 13.5747 22.4792 13.6354 22.3661C13.6962 22.253 13.7418 22.1726 13.7721 22.125C13.8025 22.0774 13.8238 22.0536 13.8359 22.0536H13.8724C13.8845 22.1012 13.9149 22.1607 13.9635 22.2321C13.9878 22.2798 14.0152 22.3244 14.0456 22.3661C14.076 22.4077 14.1124 22.4554 14.1549 22.5089C14.1975 22.5625 14.237 22.6131 14.2734 22.6607L16.224 25.5357H14.8385V27.4286H20.1432V25.5357H18.9036L15.4036 20.6607L18.9583 15.625H20.1797V13.7143H15.0937V15.625H16.4427L14.5651 18.4643C14.5165 18.5476 14.4557 18.6458 14.3828 18.7589C14.3099 18.872 14.2552 18.9524 14.2187 19L14.1823 19.0536H14.1458C14.1337 19.006 14.1033 18.9464 14.0547 18.875C13.9818 18.744 13.8785 18.6071 13.7448 18.4643L11.8125 15.625H13.1979V13.7143H7.91146V15.625H9.15104L12.5964 20.4821L9.0599 25.5357H7.82031Z" fill="#42A5F5"/>
</svg>
