<svg width="28" height="32" viewBox="0 0 28 32" fill="none" xmlns="http://www.w3.org/2000/svg">
<path d="M11.6667 6.85714V4.57143H9.33333V6.85714H11.6667ZM14 9.14286V6.85714H11.6667V9.14286H14ZM11.6667 11.4286V9.14286H9.33333V11.4286H11.6667ZM14 13.7143V11.4286H11.6667V13.7143H14ZM26.7604 6.78571C27.1007 7.11905 27.3924 7.57143 27.6354 8.14286C27.8785 8.71429 28 9.2381 28 9.71429V30.2857C28 30.7619 27.8299 31.1667 27.4896 31.5C27.1493 31.8333 26.7361 32 26.25 32H1.75C1.26389 32 0.850694 31.8333 0.510417 31.5C0.170139 31.1667 0 30.7619 0 30.2857V1.71429C0 1.2381 0.170139 0.833333 0.510417 0.5C0.850694 0.166667 1.26389 0 1.75 0H18.0833C18.5694 0 19.1042 0.119048 19.6875 0.357143C20.2708 0.595238 20.7326 0.880952 21.0729 1.21429L26.7604 6.78571ZM18.6667 2.42857V9.14286H25.5208C25.3993 8.79762 25.2656 8.55357 25.1198 8.41072L19.4141 2.82143C19.2682 2.67857 19.0191 2.54762 18.6667 2.42857ZM25.6667 29.7143V11.4286H18.0833C17.5972 11.4286 17.184 11.2619 16.8438 10.9286C16.5035 10.5952 16.3333 10.1905 16.3333 9.71429V2.28571H14V4.57143H11.6667V2.28571H2.33333V29.7143H25.6667ZM14.237 16.8393L16.1875 23.0714C16.2847 23.3929 16.3333 23.7024 16.3333 24C16.3333 24.9881 15.8928 25.8065 15.0117 26.4554C14.1306 27.1042 13.0156 27.4286 11.6667 27.4286C10.3177 27.4286 9.20269 27.1042 8.32161 26.4554C7.44054 25.8065 7 24.9881 7 24C7 23.7024 7.04861 23.3929 7.14583 23.0714C7.40104 22.3214 8.13021 19.9643 9.33333 16V13.7143H11.6667V16H13.1068C13.3741 16 13.6111 16.0774 13.8177 16.2321C14.0243 16.3869 14.1641 16.5893 14.237 16.8393ZM11.6667 25.1429C12.3108 25.1429 12.8607 25.0298 13.3164 24.8036C13.7721 24.5774 14 24.3095 14 24C14 23.6905 13.7721 23.4226 13.3164 23.1964C12.8607 22.9702 12.3108 22.8571 11.6667 22.8571C11.0226 22.8571 10.4727 22.9702 10.0169 23.1964C9.5612 23.4226 9.33333 23.6905 9.33333 24C9.33333 24.3095 9.5612 24.5774 10.0169 24.8036C10.4727 25.0298 11.0226 25.1429 11.6667 25.1429Z" fill="#42A5F5"/>
</svg>
